<svg xmlns="http://www.w3.org/2000/svg" viewBox="0 0 640 480"><defs><style>.cls-1,.cls-3,.cls-4{fill:none;}.cls-1{stroke:#73ff8c;stroke-linecap:round;stroke-width:3.05px;}.cls-1,.cls-3{stroke-miterlimit:10;}.cls-2{fill:#fff;}.cls-3{stroke:#000;stroke-width:8px;}</style></defs><g id="c"><ellipse class="cls-1" cx="319.5" cy="158.5" rx="35.85" ry="50"/><path class="cls-1" d="M280.5,222.5s-43,6-53,17-26,100-26,100l30,83"/><polyline class="cls-1" points="246.5 336.5 249.5 389.5 231.5 449.5"/><path class="cls-1" d="M358.5,222.5s42-22,52-11,40,132,40,132l-83-21"/><polyline class="cls-1" points="392.5 336.5 389.5 389.5 407.5 449.5"/><circle class="cls-2" cx="271.5" cy="251.5" r="9"/><circle class="cls-2" cx="293" cy="346" r="9"/><circle class="cls-2" cx="250" cy="432" r="9"/><circle class="cls-2" cx="359" cy="140" r="9"/><circle class="cls-2" cx="384" cy="267" r="9"/><circle class="cls-2" cx="368" cy="382" r="9"/><polyline class="cls-1" points="246.5 336.5 249.5 389.5 231.5 449.5"/><polyline class="cls-1" points="392.5 336.5 389.5 389.5 407.5 449.5"/></g><g id="Layer_1" data-name="Layer 1"><line class="cls-3" x1="320" x2="320" y2="480"/><rect class="cls-4" width="8" height="8"/><rect class="cls-4" y="472" width="8" height="8"/><rect class="cls-4" x="632" y="472" width="8" height="8"/><rect class="cls-4" x="632" width="8" height="8"/></g></svg>