<svg xmlns="http://www.w3.org/2000/svg" viewBox="0 0 640 480"><defs><style>.cls-1,.cls-2,.cls-3{fill:none;}.cls-1{stroke:#73ff8c;stroke-linecap:round;stroke-width:3.05px;}.cls-1,.cls-2{stroke-miterlimit:10;}.cls-2{stroke:#000;stroke-width:8px;}</style></defs><g id="d"><path class="cls-1" d="M249.5,144.5s16-22,71-22"/><path class="cls-1" d="M290.5,391.5s11,8.63,30,8.63"/><path class="cls-1" d="M303.5,305.37s6.23,4.89,17,4.89"/><ellipse class="cls-1" cx="273.5" cy="236.5" rx="14" ry="14.5"/><ellipse class="cls-1" cx="367.5" cy="237" rx="14" ry="14.5"/><path class="cls-1" d="M391.5,144.5s-16-22-71-22"/><path class="cls-1" d="M350.5,391.5s-11,8.63-30,8.63"/><path class="cls-1" d="M337.5,305.37s-6.23,4.89-17,4.89"/><path class="cls-1" d="M233.32,284.06s-34.82,58.44,26.36,78"/><path class="cls-1" d="M405.59,284.06s34.81,58.44-26.37,78"/><path class="cls-1" d="M305.5,341.77s14.38,2.28,26.69,0"/></g><g id="Layer_1" data-name="Layer 1"><line class="cls-2" x1="320" x2="320" y2="480"/><rect class="cls-3" width="8" height="8"/><rect class="cls-3" y="472" width="8" height="8"/><rect class="cls-3" x="632" y="472" width="8" height="8"/><rect class="cls-3" x="632" width="8" height="8"/></g></svg>