<svg xmlns="http://www.w3.org/2000/svg" viewBox="0 0 640 480"><defs><style>.cls-1,.cls-2,.cls-3{fill:none;}.cls-1{stroke:#73ff8c;stroke-linecap:round;stroke-width:3.05px;}.cls-1,.cls-2{stroke-miterlimit:10;}.cls-2{stroke:#000;stroke-width:8px;}</style></defs><g id="p"><path class="cls-1" d="M472.34,155.09"/><ellipse class="cls-1" cx="427.2" cy="196.61" rx="50" ry="35.85" transform="translate(-19.12 344.8) rotate(-43.08)"/><polyline class="cls-1" points="256.94 318.54 245.19 370.31 211.32 423"/><polyline class="cls-1" points="397.26 358.86 379.75 408.97 380.48 471.6"/><path class="cls-1" d="M414,336.26s56,18.85,71.56,18,32.94-11.63,36.68-17.87-12.66-44.29-19.35-55.84-26.12-44-26.12-44-4.64-9.35-7.32-13.69-8.3-8.87-8.3-8.87"/><path class="cls-1" d="M286.78,200.19s-15.07-57.11-13.13-72.61,13.81-32.08,20.28-35.4,43.35,15.6,54.42,23,42.18,29,42.18,29,9,5.26,13.17,8.23,8.3,8.87,8.3,8.87"/><path class="cls-1" d="M469.48,222.79c-2.69-4.33-8.3-8.87-8.3-8.87"/></g><g id="Layer_1" data-name="Layer 1"><line class="cls-2" x1="320" x2="320" y2="480"/><rect class="cls-3" width="8" height="8"/><rect class="cls-3" y="472" width="8" height="8"/><rect class="cls-3" x="632" y="472" width="8" height="8"/><rect class="cls-3" x="632" width="8" height="8"/></g></svg>