<svg xmlns="http://www.w3.org/2000/svg" viewBox="0 0 640 480"><defs><style>.cls-1,.cls-2,.cls-3{fill:none;}.cls-1{stroke:#73ff8c;stroke-linecap:round;stroke-width:3.05px;}.cls-1,.cls-2{stroke-miterlimit:10;}.cls-2{stroke:#000;stroke-width:8px;}</style></defs><g id="l"><ellipse class="cls-1" cx="477.41" cy="250.04" rx="50" ry="35.85" transform="translate(-50.29 140.63) rotate(-15.93)"/><polyline class="cls-1" points="295.23 339.87 276.6 389.58 235.93 437.23"/><polyline class="cls-1" points="409.09 409.71 387.05 458 385.44 478.05"/><path class="cls-1" d="M404.5,211.5s-16-48-16-63,2-92,3-98,8-25,8-25"/><path class="cls-1" d="M455.5,315.5s8,9,9,16-4,59.19,0,70.1,14,51.9,16,59.9S484.14,478,484.14,478"/></g><g id="Layer_1" data-name="Layer 1"><line class="cls-2" x1="320" x2="320" y2="480"/><rect class="cls-3" width="8" height="8"/><rect class="cls-3" y="472" width="8" height="8"/><rect class="cls-3" x="632" y="472" width="8" height="8"/><rect class="cls-3" x="632" width="8" height="8"/></g></svg>