<svg xmlns="http://www.w3.org/2000/svg" viewBox="0 0 640 480"><defs><style>.cls-1,.cls-2,.cls-4,.cls-5{fill:none;}.cls-1{stroke:#73ff8c;stroke-width:3.05px;}.cls-1,.cls-2{stroke-linecap:round;}.cls-1,.cls-2,.cls-4{stroke-miterlimit:10;}.cls-2{stroke:#fff;stroke-width:6px;}.cls-3{fill:#fff;}.cls-4{stroke:#000;stroke-width:8px;}</style></defs><g id="zz"><ellipse class="cls-1" cx="200.95" cy="140.5" rx="32.26" ry="45"/><path class="cls-1" d="M173,196.5s-20.09,22.28-20.58,32.31,9.59,69.88,4.61,90-16.66,65.79-15.74,83.77,9.39,48.08,9.39,48.08"/><path class="cls-2" d="M242.45,395s218.92,36,306-16-99.91-67-144-67c-166.54,0-311.93,35-344.13,43.3"/><polygon class="cls-3" points="69.28 342.41 62.04 354.85 74.48 362.08 66.13 364.29 53.7 357.06 60.93 344.62 69.28 342.41"/></g><g id="Layer_1" data-name="Layer 1"><line class="cls-4" x1="320" x2="320" y2="480"/><rect class="cls-5" width="8" height="8"/><rect class="cls-5" y="472" width="8" height="8"/><rect class="cls-5" x="632" y="472" width="8" height="8"/><rect class="cls-5" x="632" width="8" height="8"/></g></svg>