<svg xmlns="http://www.w3.org/2000/svg" viewBox="0 0 640 480"><defs><style>.cls-1,.cls-2,.cls-3{fill:none;}.cls-1{stroke:#73ff8c;stroke-linecap:round;stroke-width:3.05px;}.cls-1,.cls-2{stroke-miterlimit:10;}.cls-2{stroke:#000;stroke-width:8px;}</style></defs><g id="c"><path class="cls-1" d="M249.5,144.5s16-22,71-22"/><path class="cls-1" d="M290.5,402.5s11,8.63,30,8.63"/><path class="cls-1" d="M303.5,305.37s6.23,4.89,17,4.89"/><path class="cls-1" d="M391.5,144.5s-16-22-71-22"/><path class="cls-1" d="M350.5,402.5s-11,8.63-30,8.63"/><path class="cls-1" d="M337.5,305.37s-6.23,4.89-17,4.89"/><ellipse class="cls-1" cx="367.5" cy="236.5" rx="20" ry="9"/><path class="cls-1" d="M246.52,242.5s22,10,44-1.21"/><path class="cls-1" d="M339.5,352.5s-28-12-42-20-27-18.09-29-12.54,23,42.25,43.49,45.9S339.5,358.5,339.5,352.5Z"/></g><g id="Layer_1" data-name="Layer 1"><line class="cls-2" x1="320" x2="320" y2="480"/><rect class="cls-3" width="8" height="8"/><rect class="cls-3" y="472" width="8" height="8"/><rect class="cls-3" x="632" y="472" width="8" height="8"/><rect class="cls-3" x="632" width="8" height="8"/></g></svg>