<svg xmlns="http://www.w3.org/2000/svg" viewBox="0 0 640 480"><defs><style>.cls-1,.cls-2,.cls-3{fill:none;}.cls-1{stroke:#73ff8c;stroke-linecap:round;stroke-width:3.05px;}.cls-1,.cls-2{stroke-miterlimit:10;}.cls-2{stroke:#000;stroke-width:8px;}</style></defs><g id="u"><ellipse class="cls-1" cx="319.5" cy="170.5" rx="32" ry="44.63"/><polyline class="cls-1" points="246.5 348.5 249.5 401.5 231.5 461.5"/><polyline class="cls-1" points="392.5 348.5 389.5 401.5 407.5 461.5"/><path class="cls-1" d="M216.21,277.23s12.14,22.13,23.27,21.09,62.32-35.75,73.8-40.78,39.1-22.71,45.25-24.18,17.46-4.52,23.43-4,25.22,10.22,28.46,7.49-20.14-10.78-18.8-14.68,8.23-2.3,11.22-2,24.82,3.15,26.16-.74-5.63-4.51-8.62-4.77-21-.81-21.83-2.89,3.33-3.73,6.32-3.47,28.16-.57,28.5-4.56-7.71-3.68-9.7-3.85-12,0-15-.3-11.22,2-13-.12,8.75-8.28,12.9-9.93,12.65-6.93,10.92-10.09-11.05.05-13.13.87-21.05,11.22-23,11.05-9.05.22-11-1-5.72-3.5-5.46-6.49.95-11,.3-15-6.28-8.58-9.44-6.84,1.3,8.14-.3,15-6.23,25.55-9.39,27.29"/><path class="cls-1" d="M264.9,233.36c-6.16-1.48-17.46-4.52-23.44-4s-25.21,10.22-28.46,7.49,20.15-10.78,18.81-14.68-8.23-2.3-11.22-2-24.82,3.15-26.16-.74,5.63-4.51,8.62-4.77,21-.81,21.83-2.89-3.33-3.73-6.32-3.47-28.16-.57-28.5-4.56,7.71-3.68,9.7-3.85,12,0,15-.3,11.22,2,13-.12-8.75-8.28-12.91-9.93-12.64-6.93-10.91-10.09,11.05.05,13.13.87,21,11.22,23,11.05,9,.22,10.95-1,5.72-3.5,5.46-6.49-.95-11-.29-15,6.28-8.58,9.44-6.84-1.3,8.14.3,15,6.23,25.55,9.39,27.29"/><path class="cls-1" d="M306.64,261.05S352.5,302.5,367.5,303.5c11,.73,22-8.69,22-8.69"/></g><g id="Layer_1" data-name="Layer 1"><line class="cls-2" x1="320" x2="320" y2="480"/><rect class="cls-3" width="8" height="8"/><rect class="cls-3" y="472" width="8" height="8"/><rect class="cls-3" x="632" y="472" width="8" height="8"/><rect class="cls-3" x="632" width="8" height="8"/></g></svg>