<svg xmlns="http://www.w3.org/2000/svg" viewBox="0 0 640 480"><defs><style>.cls-1,.cls-2,.cls-3,.cls-4{fill:none;}.cls-1{stroke:#73ff8c;stroke-width:3.05px;}.cls-1,.cls-2{stroke-linecap:round;}.cls-1,.cls-2,.cls-3{stroke-miterlimit:10;}.cls-2{stroke:#fff;stroke-width:6px;}.cls-3{stroke:#000;stroke-width:8px;}</style></defs><g id="n"><ellipse class="cls-1" cx="319.5" cy="162.5" rx="32" ry="44.63"/><polyline class="cls-1" points="251.89 320.67 254.67 369.76 238 425.33"/><polyline class="cls-1" points="387.11 320.67 384.33 369.76 401 425.33"/><path class="cls-1" d="M240.49,255c-1-3.49,2-18.51,4-19.51s67,15,80,15.31,58-17.31,58-17.31c3-6,2.66-18.92,1.83-21.46s-5.83-5.54-3.83-7.54,2.82-1,4.41,0,4.59,3,5.59,5a75.25,75.25,0,0,1,4,13c0,1,4,1,5,2s3,5,3,10,1,17-3,22-5,4-6.84,3.43S330.5,301.5,305.5,300.5s-59.16-32.73-59.16-32.73"/><path class="cls-1" d="M230.18,244.25s-2.68-28.75,4.32-32.75,67-12.11,67-12.11"/><path class="cls-1" d="M337.51,199.39s31.73-2.1,37.36,0"/><path class="cls-2" d="M221.51,198.46s-8,4-11,17"/><path class="cls-2" d="M210.51,190.46s-8,4-11,17"/><path class="cls-2" d="M416.22,206.81s.28-9-9.71-17.81"/><path class="cls-2" d="M428.5,201s.28-9-9.71-17.81"/></g><g id="Layer_1" data-name="Layer 1"><line class="cls-3" x1="320" x2="320" y2="480"/><rect class="cls-4" width="8" height="8"/><rect class="cls-4" y="472" width="8" height="8"/><rect class="cls-4" x="632" y="472" width="8" height="8"/><rect class="cls-4" x="632" width="8" height="8"/></g></svg>