<svg xmlns="http://www.w3.org/2000/svg" viewBox="0 0 640 480"><defs><style>.cls-1,.cls-2,.cls-3,.cls-4{fill:none;}.cls-1{stroke:#73ff8c;stroke-width:3.05px;}.cls-1,.cls-2{stroke-linecap:round;}.cls-1,.cls-2,.cls-3{stroke-miterlimit:10;}.cls-2{stroke:#fff;stroke-width:6px;}.cls-3{stroke:#000;stroke-width:8px;}</style></defs><g id="p"><path class="cls-1" d="M320.77,121.64"/><path class="cls-1" d="M254.11,346.54s-81.36,11.34-100.22,32.13c-7.23,8-28.39,47.83-51,97.83"/><path class="cls-1" d="M274.5,160.83s10.42-14.33,46.25-14.33"/><path class="cls-1" d="M301.21,332.8s7.16,5.62,19.54,5.62"/><path class="cls-1" d="M309.68,265.62a18.94,18.94,0,0,0,11.07,3.19"/><ellipse class="cls-1" cx="290.13" cy="223.37" rx="13.03" ry="5.86"/><path class="cls-1" d="M367,160.83s-10.42-14.33-46.25-14.33"/><path class="cls-1" d="M340.29,332.8s-7.16,5.62-19.54,5.62"/><path class="cls-1" d="M331.82,265.62a18.94,18.94,0,0,1-11.07,3.19"/><ellipse class="cls-1" cx="351.37" cy="223.37" rx="13.03" ry="5.86"/><line class="cls-1" x1="309.68" y1="292.86" x2="330.52" y2="292.86"/><path class="cls-1" d="M506.5,370.5S527,314.12,530.22,268.81s4.28-105-23.72-115.14-104,20.83-104,20.83"/><path class="cls-1" d="M402.5,246.5s43-14,47-11-28,49-28,49"/><path class="cls-1" d="M266.17,291.41c-4.09,2.39-7.5,9.21-7.16,13.64s4.09,4.44,5.8,4.44,5.11-3.41,6.68-4.52"/><path class="cls-1" d="M250.5,233.5c-5.63,0-18.43,1.63-21.67,1.53s-12.8.79-14.93,1-7.76-.17-9,0-12.36.85-11.17,7.48,15.86,4.28,17.91,3.94,17.05,1,20.29.85,12.11.18,12.11,1.54-18.76,2-21.14,2.39-17.06,2.38-19.1,2.38-18.42-2-17.74,6.83,15.35,5.45,18.08,5.11,15.35,0,18.76,0,20.46-3.41,21.48,1-14.66,7.84-17.05,8.86-10.91,3.75-12.62,4.44-17.39,3.75-15.35,10.57,17.06.68,20.13,0S231,289.36,233.09,289s12.28-3.75,15.69-4.43,9.89-2.39,14-2.73"/><path class="cls-2" d="M194.63,202.53s-1.22,8.89,7.77,18.74"/><path class="cls-2" d="M190.28,224.52s-2.64-8.58-14.95-13.71"/><path class="cls-2" d="M171.72,305.78s8.75-2,14.81-13.87"/><path class="cls-2" d="M193.83,302.1s-7.09,5.5-7.55,18.83"/><path class="cls-1" d="M250.5,226.5s-23.24,1-26.12-2-4.88-5-.88-9,27,0,27,0"/></g><g id="Layer_1" data-name="Layer 1"><line class="cls-3" x1="320" x2="320" y2="480"/><rect class="cls-4" width="8" height="8"/><rect class="cls-4" y="472" width="8" height="8"/><rect class="cls-4" x="632" y="472" width="8" height="8"/><rect class="cls-4" x="632" width="8" height="8"/></g></svg>