<svg xmlns="http://www.w3.org/2000/svg" viewBox="0 0 640 480"><defs><style>.cls-1,.cls-2,.cls-3{fill:none;}.cls-1{stroke:#73ff8c;stroke-linecap:round;stroke-width:3.05px;}.cls-1,.cls-2{stroke-miterlimit:10;}.cls-2{stroke:#000;stroke-width:8px;}</style></defs><g id="r"><path class="cls-1" d="M567.5,278.5s-61,3-86,3-35-6-56-14-32-32-35-37-21-21-24-23-14-12-16-13.16-12-18.84-14-19.84-6,1-8,8,0,15,6,26,26,27,24,31.63c0,0-23.22,6.11-30.77,7s-19.92.27-26.36.32-26.25-2.28-30.09-2.13-19.8.89-25.62.81-35.31-5.56-36.45,7.57,28.44,12.79,31.78,13.38,19.82,2.33,24.53,3.29,34.42,1.23,34.24,9.65S267.4,288.7,261.22,290s-28.91,6.65-34,7.05-32.93-.25-30.83,16.08,31,6.45,34.7,5.68,31.05-2.58,35.5-2.86,38.7-6.11,39.21-3.63-15.42,6.44-21.35,7.34-32.62,9-36.45,9.17-31.29,1.43-31,13.89,20.67,9.52,23.05,9.35,12.42-2.9,16.37-3.4,21.49-2.89,27.4-3.88c7.62-1.28,27.62-7.28,28.62-3.28s-13,16-20,18-19,8-23,10-9.83,5.34-7.91,9.67,5.91,5.33,10.91,4.33,13-4,21-6,22.11-6.3,32.55-9.15,24.45-.85,41.45-3.85,26-8,39-8,41,2,56,4S548,379.17,548,379.17"/><path class="cls-1" d="M96.54,172.45s11.93-13.56,48.28-10.18"/><path class="cls-1" d="M108.05,342.84s6.74,6.37,19.29,7.54"/><path class="cls-1" d="M122.36,282.08a19.3,19.3,0,0,0,10.93,4.28"/><ellipse class="cls-1" cx="106.88" cy="233.4" rx="5.97" ry="13.28" transform="translate(-135.41 318.24) rotate(-84.69)"/><path class="cls-1" d="M190.39,181.16s-9.22-15.52-45.57-18.89"/><path class="cls-1" d="M147.7,346.52s-7.8,5-20.36,3.86"/><path class="cls-1" d="M144.83,284.17a19.34,19.34,0,0,1-11.54,2.19"/><ellipse class="cls-1" cx="169.01" cy="239.17" rx="5.97" ry="13.28" transform="translate(-84.78 385.33) rotate(-84.69)"/><path class="cls-1" d="M102.89,305s10.5,9,27.74,9.93"/><path class="cls-1" d="M159.73,310.31s-12,6.93-29.1,4.65"/><path class="cls-1" d="M102.89,305s10.84,5.35,28.06,6.58"/><path class="cls-1" d="M159.73,310.31s-11.64,3.27-28.78,1.3"/></g><g id="Layer_1" data-name="Layer 1"><line class="cls-2" x1="320" x2="320" y2="480"/><rect class="cls-3" width="8" height="8"/><rect class="cls-3" y="472" width="8" height="8"/><rect class="cls-3" x="632" y="472" width="8" height="8"/><rect class="cls-3" x="632" width="8" height="8"/></g></svg>