<svg xmlns="http://www.w3.org/2000/svg" viewBox="0 0 640 480"><defs><style>.cls-1,.cls-2,.cls-3{fill:none;}.cls-1{stroke:#73ff8c;stroke-linecap:round;stroke-width:3.05px;}.cls-1,.cls-2{stroke-miterlimit:10;}.cls-2{stroke:#000;stroke-width:8px;}</style></defs><g id="s"><path class="cls-1" d="M567.5,278.5s-61,3-86,3-35-6-56-14-32-32-35-37-21-21-24-23-14-12-16-13.16-12-18.84-14-19.84-6,1-8,8,0,15,6,26,26,27,24,31.63c0,0-23.22,6.11-30.77,7s-19.92.27-26.36.32-26.25-2.28-30.09-2.13-19.8.89-25.62.81-35.31-5.56-36.45,7.57,28.44,12.79,31.78,13.38,19.82,2.33,24.53,3.29,34.42,1.23,34.24,9.65S267.4,288.7,261.22,290s-28.91,6.65-34,7.05-32.93-.25-30.83,16.08,31,6.45,34.7,5.68,31.05-2.58,35.5-2.86,38.7-6.11,39.21-3.63-15.42,6.44-21.35,7.34-32.62,9-36.45,9.17-31.29,1.43-31,13.89,20.67,9.52,23.05,9.35,12.42-2.9,16.37-3.4,21.49-2.89,27.4-3.88c7.62-1.28,27.62-7.28,28.62-3.28s-13,16-20,18-19,8-23,10-9.83,5.34-7.91,9.67,5.91,5.33,10.91,4.33,13-4,21-6,22.11-6.3,32.55-9.15,24.45-.85,41.45-3.85,26-8,39-8,41,2,56,4S548,379.17,548,379.17"/><path class="cls-1" d="M275,173.55s10.25-14.1,45.5-14.1"/><path class="cls-1" d="M366,173.55s-10.25-14.1-45.5-14.1"/><ellipse class="cls-1" cx="287.5" cy="230.5" rx="11" ry="4.95"/></g><g id="Layer_1" data-name="Layer 1"><line class="cls-2" x1="320" x2="320" y2="480"/><rect class="cls-3" width="8" height="8"/><rect class="cls-3" y="472" width="8" height="8"/><rect class="cls-3" x="632" y="472" width="8" height="8"/><rect class="cls-3" x="632" width="8" height="8"/></g></svg>