<svg xmlns="http://www.w3.org/2000/svg" viewBox="0 0 640 480"><defs><style>.cls-1,.cls-2,.cls-4,.cls-5{fill:none;}.cls-1{stroke:#73ff8c;stroke-width:3.05px;}.cls-1,.cls-2{stroke-linecap:round;}.cls-1,.cls-2,.cls-4{stroke-miterlimit:10;}.cls-2{stroke:#fff;stroke-width:6px;}.cls-3{fill:#fff;}.cls-4{stroke:#000;stroke-width:8px;}</style></defs><g id="d"><ellipse class="cls-1" cx="319.5" cy="158.5" rx="35.85" ry="50"/><path class="cls-1" d="M280.5,222.5s-43,6-53,17-35,143-35,143l-17,96"/><polyline class="cls-1" points="246.5 336.5 249.5 389.5 231.5 449.5"/><path class="cls-1" d="M340.5,208.5s43-29,53-18,49,125,49,125l41,104"/><polyline class="cls-1" points="392.5 336.5 389.5 389.5 407.5 449.5"/><path class="cls-2" d="M392,211s0-9.54-.07-39.09"/><polygon class="cls-3" points="402.12 183.84 391.93 173.69 381.78 183.88 381.76 175.25 391.91 165.06 402.1 175.21 402.12 183.84"/></g><g id="Layer_1" data-name="Layer 1"><line class="cls-4" x1="320" x2="320" y2="480"/><rect class="cls-5" width="8" height="8"/><rect class="cls-5" y="472" width="8" height="8"/><rect class="cls-5" x="632" y="472" width="8" height="8"/><rect class="cls-5" x="632" width="8" height="8"/></g></svg>