<svg xmlns="http://www.w3.org/2000/svg" viewBox="0 0 640 480"><defs><style>.cls-1,.cls-2,.cls-3{fill:none;}.cls-1{stroke:#73ff8c;stroke-linecap:round;stroke-width:3.05px;}.cls-1,.cls-2{stroke-miterlimit:10;}.cls-2{stroke:#000;stroke-width:8px;}</style></defs><g id="j"><path class="cls-1" d="M249.5,156.5s16-22,71-22"/><path class="cls-1" d="M303.5,317.37s6.23,4.89,17,4.89"/><ellipse class="cls-1" cx="273.5" cy="246.5" rx="20" ry="9"/><path class="cls-1" d="M391.5,156.5s-16-22-71-22"/><path class="cls-1" d="M337.5,317.37s-6.23,4.89-17,4.89"/><ellipse class="cls-1" cx="367.5" cy="246.5" rx="20" ry="9"/><path class="cls-1" d="M277.5,354.5s17,6.52,43,6"/><path class="cls-1" d="M363.5,354.5s-17,6.52-43,6"/><path class="cls-1" d="M288.38,358s-4.37,83.59,32.09,79.35"/><path class="cls-1" d="M352.19,358s4.36,83.59-32.1,79.35"/></g><g id="Layer_1" data-name="Layer 1"><line class="cls-2" x1="320" x2="320" y2="480"/><rect class="cls-3" width="8" height="8"/><rect class="cls-3" y="472" width="8" height="8"/><rect class="cls-3" x="632" y="472" width="8" height="8"/><rect class="cls-3" x="632" width="8" height="8"/></g></svg>