<svg xmlns="http://www.w3.org/2000/svg" viewBox="0 0 640 480"><defs><style>.cls-1,.cls-2,.cls-3{fill:none;}.cls-1{stroke:#73ff8c;stroke-linecap:round;stroke-width:3.05px;}.cls-1,.cls-2{stroke-miterlimit:10;}.cls-2{stroke:#000;stroke-width:8px;}</style></defs><g id="Layer_34" data-name="Layer 34"><path class="cls-1" d="M280.5,222.5s-43,6-53,17c-4.2,4.63-11.07,30.73-17.61,59.39"/><polyline class="cls-1" points="246.5 336.5 249.5 389.5 231.5 449.5"/><path class="cls-1" d="M358.5,222.5s43,6,53,17c3.9,4.3,10.09,27.05,16.18,53.2"/><polyline class="cls-1" points="392.5 336.5 389.5 389.5 407.5 449.5"/><path class="cls-1" d="M299,199.5c5.81,5.67,12.88,9,20.51,9s14.7-3.33,20.51-9"/><path class="cls-1" d="M346.42,125.5c-6.57-10.42-16.19-17-26.92-17s-20.35,6.58-26.92,17"/></g><g id="Layer_1" data-name="Layer 1"><line class="cls-2" x1="320" x2="320" y2="480"/><rect class="cls-3" width="8" height="8"/><rect class="cls-3" y="472" width="8" height="8"/><rect class="cls-3" x="632" y="472" width="8" height="8"/><rect class="cls-3" x="632" width="8" height="8"/></g></svg>