<svg xmlns="http://www.w3.org/2000/svg" viewBox="0 0 640 480"><defs><style>.cls-1,.cls-2,.cls-3{fill:none;}.cls-1{stroke:#73ff8c;stroke-linecap:round;stroke-width:3.05px;}.cls-1,.cls-2{stroke-miterlimit:10;}.cls-2{stroke:#000;stroke-width:8px;}</style></defs><g id="v"><path class="cls-1" d="M256.5,336.5s-39,13-47,14-65,11-73,13-40,18-40,18"/><path class="cls-1" d="M96.5,186.5s9,20,14,24,29,9,29,9"/><path class="cls-1" d="M102.5,319.5s16,20,25,20,57-17,57-17"/><ellipse class="cls-1" cx="319.21" cy="182.16" rx="32.26" ry="45" transform="matrix(1, -0.09, 0.09, 1, -14.41, 27.96)"/><path class="cls-1" d="M351.9,235.56S373.82,256,375.17,266s-3.58,80.44,3.11,100.08,27.22,54.14,27.84,72.13-.62,38.29-.62,38.29"/><path class="cls-1" d="M278.5,282.5s-35-5-45-7-27-2-36-4-76.21-33-83.11-31.5-28.72,0-28.72,0"/></g><g id="Layer_1" data-name="Layer 1"><line class="cls-2" x1="320" x2="320" y2="480"/><rect class="cls-3" width="8" height="8"/><rect class="cls-3" y="472" width="8" height="8"/><rect class="cls-3" x="632" y="472" width="8" height="8"/><rect class="cls-3" x="632" width="8" height="8"/></g></svg>