<svg xmlns="http://www.w3.org/2000/svg" viewBox="0 0 640 480"><defs><style>.cls-1,.cls-2,.cls-3{fill:none;}.cls-1{stroke:#73ff8c;stroke-linecap:round;stroke-width:3.05px;}.cls-1,.cls-2{stroke-miterlimit:10;}.cls-2{stroke:#000;stroke-width:8px;}</style></defs><g id="e"><path class="cls-1" d="M249.5,148.5s16-22,71-22"/><path class="cls-1" d="M290.5,395.5s11,8.63,30,8.63"/><path class="cls-1" d="M303.5,305.37s6.23,4.89,17,4.89"/><path class="cls-1" d="M391.5,148.5s-16-22-71-22"/><path class="cls-1" d="M350.5,395.5s-11,8.63-30,8.63"/><path class="cls-1" d="M337.5,305.37s-6.23,4.89-17,4.89"/><path class="cls-1" d="M233.32,284.06s-34.82,58.44,26.36,78"/><ellipse class="cls-1" cx="273.5" cy="243.5" rx="20" ry="9"/><ellipse class="cls-1" cx="367.5" cy="243.5" rx="20" ry="9"/><ellipse class="cls-1" cx="319.5" cy="350.5" rx="16" ry="5"/><path class="cls-1" d="M413.5,270.5c-1,8,1,20-10,26s-27,7-30,18,5,31,9,41,0,16-4,19"/><path class="cls-1" d="M640,446.48s-15.5-17-29.5-27-72-29-96-37-33-14-41-17-13-4-18-6-35-18-38-20-13-9-18-11-13-13-15-14-6.78-8.48-8.89-4.24-3.11,26.24,6.89,34.24,3,3,10,8,22,20,25,21,14,12,14,12"/><path class="cls-1" d="M445.11,374.5s-27.61,29.12-31.61,37.56-3,16.17,0,18.3,9,7.14,9,7.14"/><path class="cls-1" d="M445.11,402.45S431.47,416.58,428,423.54s-6.51,20.77,0,26.37"/><path class="cls-1" d="M450.5,429.5s-16.71,9-19.35,17,3,17.72,9.67,19.87,16.68,7.15,22.68,5.15l18-6"/><path class="cls-1" d="M459.5,460.5s15,0,26,4,36,14,36,14"/></g><g id="Layer_1" data-name="Layer 1"><line class="cls-2" x1="320" x2="320" y2="480"/><rect class="cls-3" width="8" height="8"/><rect class="cls-3" y="472" width="8" height="8"/><rect class="cls-3" x="632" y="472" width="8" height="8"/><rect class="cls-3" x="632" width="8" height="8"/></g></svg>