<svg xmlns="http://www.w3.org/2000/svg" viewBox="0 0 640 480"><defs><style>.cls-1,.cls-3,.cls-4,.cls-5{fill:none;}.cls-1{stroke:#fff;stroke-width:6px;}.cls-1,.cls-3{stroke-linecap:round;}.cls-1,.cls-3,.cls-4{stroke-miterlimit:10;}.cls-2{fill:#fff;}.cls-3{stroke:#73ff8c;stroke-width:3.05px;}.cls-4{stroke:#000;stroke-width:8px;}</style></defs><g id="y"><line class="cls-1" x1="186.35" y1="346.25" x2="454.64" y2="346.25"/><polygon class="cls-2" points="442.69 356.42 452.87 346.25 442.69 336.08 451.33 336.08 461.5 346.25 451.33 356.42 442.69 356.42"/><ellipse class="cls-3" cx="145.68" cy="172.95" rx="45.5" ry="32.63" transform="translate(-76.94 212.63) rotate(-60)"/><path class="cls-3" d="M82.36,222.07s-39.42-3.19-50.46,4.61c-5,3.56-17.89,29-30.34,55.49"/><polyline class="cls-3" points="29.59 316.61 21.77 364.28 1.42 400.59"/><path class="cls-3" d="M151.65,237.52s37,13.85,43.73,25.59,2.76,134,2.76,134L194.67,476"/><polyline class="cls-3" points="159.28 345.51 146.13 392 150.24 448.86"/></g><g id="Layer_1" data-name="Layer 1"><line class="cls-4" x1="320" x2="320" y2="480"/><rect class="cls-5" width="8" height="8"/><rect class="cls-5" y="472" width="8" height="8"/><rect class="cls-5" x="632" y="472" width="8" height="8"/><rect class="cls-5" x="632" width="8" height="8"/></g></svg>