<?xml version="1.0" encoding="utf-8"?>
<!-- Generator: Adobe Illustrator 25.0.1, SVG Export Plug-In . SVG Version: 6.00 Build 0)  -->
<svg version="1.1" id="Layer_1" xmlns="http://www.w3.org/2000/svg" xmlns:xlink="http://www.w3.org/1999/xlink" x="0px" y="0px"
	 viewBox="0 0 640 480" style="enable-background:new 0 0 640 480;" xml:space="preserve">
<style type="text/css">
	.st0{fill:none;stroke:#73FF8C;stroke-width:3.05;stroke-linecap:round;stroke-miterlimit:10;}
	.st1{fill:none;stroke:#FFFFFF;stroke-width:8;stroke-linecap:round;stroke-miterlimit:10;}
	.st2{fill:#FFFFFF;}
	.st3{fill:none;stroke:#FFFFFF;stroke-width:3.05;stroke-linecap:round;stroke-miterlimit:10;}
	.st4{fill:none;stroke:#000000;stroke-width:8;stroke-miterlimit:10;}
	.st5{fill:none;}
</style>
<g id="f">
	<path class="st0" d="M249.5,156.5c0,0,16-22,71-22"/>
	<path class="st0" d="M290.5,410.5c0,0,11,8.6,30,8.6"/>
	<path class="st0" d="M303.5,321.4c0,0,6.2,4.9,17,4.9"/>
	<ellipse class="st0" cx="273.5" cy="250.5" rx="20" ry="9"/>
	<path class="st0" d="M391.5,156.5c0,0-16-22-71-22"/>
	<path class="st0" d="M350.5,410.5c0,0-11,8.6-30,8.6"/>
	<path class="st0" d="M337.5,321.4c0,0-6.2,4.9-17,4.9"/>
	<ellipse class="st0" cx="367.5" cy="250.5" rx="20" ry="9"/>
	<path class="st0" d="M320.5,371c-21.5,0.9-35.5-9.1-35.5-9.1s19.8-5.2,23.1-5.5s12,3,12,3"/>
	<path class="st0" d="M356,361.9c0,0-14,10-35.5,9.1"/>
	<path class="st0" d="M332.8,356.4c-3.3-0.3-12,3-12,3"/>
	<path class="st0" d="M355.9,361.9c0,0-19.8-5.2-23.1-5.5"/>
	<path class="st0" d="M513.1,476c0,0-42.6-90.5-50.6-101.5s-15-12-21-36s4-99,8-107s8-10,9-19s7.7-82.5,17.9-82.3s10.1,2.3,10.1,6.3
		s-4,57-3,63l-0.1,31.1"/>
	<path class="st0" d="M483.4,130.2c0,0,0.1-46.7,6.1-48.7s14.4-2,16.2,0s-1.2,50-0.2,56s-1.4,26.3,0.8,40.2s1.8,34.5,0,39.7
		s-5.8,40.1-5.8,46.1s-5.4,40.7,7.3,57.9C520.5,338.5,640,456,640,456"/>
	<path class="st0" d="M506.3,93.4c0,0,7.2-9.9,13.2-6.9s4,11,4,19s-2.1,45-2,51s-14.6,25.2-14.6,25.2"/>
	<path class="st0" d="M501.3,80c0,0,1.2-19.5-4.8-19.5s-14,3-14,8s1.3,46.7,1.3,46.7"/>
	<line class="st1" x1="451" y1="313" x2="412.7" y2="313"/>
	<polygon class="st2" points="428.6,299.4 415,313 428.6,326.6 417.1,326.6 403.5,313 417.1,299.4 	"/>
	<path class="st3" d="M121.3,164.7c0,0,7.1-26.3,58.5-45.9"/>
	<path class="st3" d="M250.1,387.4c0,0,13.4,4.1,31.1-2.6"/>
	<path class="st3" d="M229.1,295.8c0,0,7.6,2.3,17.6-1.5"/>
	<ellipse transform="matrix(0.9344 -0.3562 0.3562 0.9344 -74.6782 78.7606)" class="st3" cx="176.5" cy="242.1" rx="20" ry="9"/>
	<path class="st3" d="M254,114.1c0,0-22.8-14.9-74.2,4.7"/>
	<path class="st3" d="M306.2,366c0,0-7.2,12-25,18.8"/>
	<path class="st3" d="M260.8,283.6c0,0-4.1,6.8-14.1,10.6"/>
	<ellipse transform="matrix(0.9344 -0.3562 0.3562 0.9344 -56.9843 107.8537)" class="st3" cx="264.3" cy="208.6" rx="20" ry="9"/>
	<path class="st3" d="M262.8,336.6c-23.9,10.2-44.1,5-44.1,5s20.2-14.5,23.8-16.2s14.9-1.7,14.9-1.7"/>
	<path class="st3" d="M299.1,311c0,0-11.6,17.3-36.2,25.6"/>
	<path class="st3" d="M270.4,314.7c-3.9,1.1-12.2,8.6-12.2,8.6"/>
	<path class="st3" d="M299,311c0,0-24.7,2.6-28.5,3.7"/>
</g>
<g id="Layer_1_1_">
	<line class="st4" x1="320" y1="0" x2="320" y2="480"/>
	<rect class="st5" width="8" height="8"/>
	<rect y="472" class="st5" width="8" height="8"/>
	<rect x="632" y="472" class="st5" width="8" height="8"/>
	<rect x="632" class="st5" width="8" height="8"/>
</g>
</svg>
