<svg xmlns="http://www.w3.org/2000/svg" viewBox="0 0 640 480"><defs><style>.cls-1,.cls-2,.cls-3{fill:none;}.cls-1{stroke:#73ff8c;stroke-linecap:round;stroke-width:3.05px;}.cls-1,.cls-2{stroke-miterlimit:10;}.cls-2{stroke:#000;stroke-width:8px;}</style></defs><g id="i"><ellipse class="cls-1" cx="319.5" cy="159.5" rx="35.85" ry="50"/><path class="cls-1" d="M280.5,223.5s-43,6-53,17-62,77-70,82-93,67-93,67c-16,4-45,19-45,19"/><polyline class="cls-1" points="246.5 337.5 249.5 390.5 231.5 450.5"/><path class="cls-1" d="M358.5,223.5s36.35-14.22,49-22c13-8,56-78,56-78l70-79c6-10,16-33,16-33"/><polyline class="cls-1" points="392.5 337.5 389.5 390.5 407.5 450.5"/></g><g id="Layer_1" data-name="Layer 1"><line class="cls-2" x1="320" x2="320" y2="480"/><rect class="cls-3" width="8" height="8"/><rect class="cls-3" y="472" width="8" height="8"/><rect class="cls-3" x="632" y="472" width="8" height="8"/><rect class="cls-3" x="632" width="8" height="8"/></g></svg>