<svg xmlns="http://www.w3.org/2000/svg" viewBox="0 0 640 480"><defs><style>.cls-1,.cls-2,.cls-3{fill:none;}.cls-1{stroke:#73ff8c;stroke-linecap:round;stroke-width:3.05px;}.cls-1,.cls-2{stroke-miterlimit:10;}.cls-2{stroke:#000;stroke-width:8px;}</style></defs><g id="o"><path class="cls-1" d="M254.11,346.54s-81.36,11.34-100.22,32.13c-7.23,8-28.39,47.83-51,97.83"/><path class="cls-1" d="M274.5,160.83s10.42-14.33,46.25-14.33"/><path class="cls-1" d="M301.21,332.8s7.16,5.62,19.54,5.62"/><path class="cls-1" d="M309.68,265.62a18.94,18.94,0,0,0,11.07,3.19"/><ellipse class="cls-1" cx="290.13" cy="223.37" rx="13.03" ry="5.86"/><path class="cls-1" d="M367,160.83s-10.42-14.33-46.25-14.33"/><path class="cls-1" d="M340.29,332.8s-7.16,5.62-19.54,5.62"/><path class="cls-1" d="M331.82,265.62a18.94,18.94,0,0,1-11.07,3.19"/><ellipse class="cls-1" cx="351.37" cy="223.37" rx="13.03" ry="5.86"/><line class="cls-1" x1="309.68" y1="292.86" x2="330.52" y2="292.86"/><path class="cls-1" d="M388.56,228.18s3.23,14.23,2.58,25.88-5.49,29.28-5.49,29.28"/><path class="cls-1" d="M380.35,309.58s7.84-10.19,13-17.15,10.93-28.28,23.05-30.71,22.71-7.31,28.63-6.56,103,15.29,103,15.29"/><path class="cls-1" d="M402.23,199.8s14.8-4.21,21.27-4.21h63.23c17,0,64.88-3.24,64.88-3.24"/></g><g id="Layer_1" data-name="Layer 1"><line class="cls-2" x1="320" x2="320" y2="480"/><rect class="cls-3" width="8" height="8"/><rect class="cls-3" y="472" width="8" height="8"/><rect class="cls-3" x="632" y="472" width="8" height="8"/><rect class="cls-3" x="632" width="8" height="8"/></g></svg>