<svg xmlns="http://www.w3.org/2000/svg" viewBox="0 0 640 480"><defs><style>.cls-1,.cls-2,.cls-3{fill:none;}.cls-1{stroke:#73ff8c;stroke-linecap:round;stroke-width:3.05px;}.cls-1,.cls-2{stroke-miterlimit:10;}.cls-2{stroke:#000;stroke-width:8px;}</style></defs><g id="h"><ellipse class="cls-1" cx="319.5" cy="159.5" rx="35.85" ry="50"/><polyline class="cls-1" points="246.5 337.5 249.5 390.5 231.5 450.5"/><path class="cls-1" d="M358.5,217.5s38.48,2.85,52,9c11,5,75,25,89,20s38-73,38-83-8-26-5-44"/><polyline class="cls-1" points="392.5 337.5 389.5 390.5 407.5 450.5"/><path class="cls-1" d="M288.5,212.5s-38.44-2.91-53,0c-10,2-69,7-93,15s-30,66-34,76-8,51-8,51"/></g><g id="Layer_1" data-name="Layer 1"><line class="cls-2" x1="320" x2="320" y2="480"/><rect class="cls-3" width="8" height="8"/><rect class="cls-3" y="472" width="8" height="8"/><rect class="cls-3" x="632" y="472" width="8" height="8"/><rect class="cls-3" x="632" width="8" height="8"/></g></svg>