<svg xmlns="http://www.w3.org/2000/svg" viewBox="0 0 640 480"><defs><style>.cls-1,.cls-2,.cls-3{fill:none;}.cls-1{stroke:#73ff8c;stroke-linecap:round;stroke-width:3.05px;}.cls-1,.cls-2{stroke-miterlimit:10;}.cls-2{stroke:#000;stroke-width:8px;}</style></defs><g id="o"><ellipse class="cls-1" cx="319.5" cy="158.5" rx="35.85" ry="50"/><polyline class="cls-1" points="246.5 336.5 249.5 389.5 231.5 449.5"/><polyline class="cls-1" points="392.5 336.5 389.5 389.5 407.5 449.5"/><path class="cls-1" d="M412.5,263.5s52-28,62-40,14-32,12-39-41-21-54-24-50-11-50-11-10-3-15-4-12.15,0-12.15,0"/><path class="cls-1" d="M226.2,263.5s-52-28-62-40-14-32-12-39,41-21,54-24,50-11,50-11,10-3,15-4,12.15,0,12.15,0"/><path class="cls-1" d="M367.5,145.5c-5-1-12.15,0-12.15,0"/></g><g id="Layer_1" data-name="Layer 1"><line class="cls-2" x1="320" x2="320" y2="480"/><rect class="cls-3" width="8" height="8"/><rect class="cls-3" y="472" width="8" height="8"/><rect class="cls-3" x="632" y="472" width="8" height="8"/><rect class="cls-3" x="632" width="8" height="8"/></g></svg>