<svg xmlns="http://www.w3.org/2000/svg" viewBox="0 0 640 480"><defs><style>.cls-1,.cls-2,.cls-4,.cls-5{fill:none;}.cls-1{stroke:#73ff8c;stroke-width:3.05px;}.cls-1,.cls-2{stroke-linecap:round;}.cls-1,.cls-2,.cls-4{stroke-miterlimit:10;}.cls-2{stroke:#fff;}.cls-2,.cls-4{stroke-width:8px;}.cls-3{fill:#fff;}.cls-4{stroke:#000;}</style></defs><g id="n"><path class="cls-1" d="M254.11,346.54s-81.36,11.34-100.22,32.13c-7.23,8-28.39,47.83-51,97.83"/><path class="cls-1" d="M387.76,298.54s55.88.17,74.74,21c7.23,8,68.43,107,91,157"/><path class="cls-1" d="M274.5,160.83s10.42-14.33,46.25-14.33"/><path class="cls-1" d="M301.21,332.8s7.16,5.62,19.54,5.62"/><path class="cls-1" d="M309.68,265.62a18.94,18.94,0,0,0,11.07,3.19"/><ellipse class="cls-1" cx="290.13" cy="223.37" rx="13.03" ry="5.86"/><path class="cls-1" d="M367,160.83s-10.42-14.33-46.25-14.33"/><path class="cls-1" d="M340.29,332.8s-7.16,5.62-19.54,5.62"/><path class="cls-1" d="M331.82,265.62a18.94,18.94,0,0,1-11.07,3.19"/><ellipse class="cls-1" cx="351.37" cy="223.37" rx="13.03" ry="5.86"/><line class="cls-1" x1="309.68" y1="292.86" x2="330.52" y2="292.86"/><path class="cls-2" d="M445.57,283.3a116.17,116.17,0,0,0-6.69,39.58"/><polygon class="cls-3" points="426.9 292.68 444.7 285.5 451.86 303.3 456.37 292.7 449.2 274.91 431.41 282.08 426.9 292.68"/></g><g id="Layer_1" data-name="Layer 1"><line class="cls-4" x1="320" x2="320" y2="480"/><rect class="cls-5" width="8" height="8"/><rect class="cls-5" y="472" width="8" height="8"/><rect class="cls-5" x="632" y="472" width="8" height="8"/><rect class="cls-5" x="632" width="8" height="8"/></g></svg>