<svg xmlns="http://www.w3.org/2000/svg" viewBox="0 0 640 480"><defs><style>.cls-1,.cls-2,.cls-4,.cls-5,.cls-7,.cls-8{fill:none;}.cls-1,.cls-4,.cls-5{stroke:#fff;}.cls-1,.cls-2,.cls-4,.cls-5{stroke-linecap:round;stroke-width:3.05px;}.cls-1,.cls-2,.cls-4,.cls-5,.cls-7{stroke-miterlimit:10;}.cls-1,.cls-3{opacity:0.7;}.cls-2{stroke:#73ff8c;}.cls-5,.cls-6{opacity:0.6;}.cls-7{stroke:#000;stroke-width:8px;}</style></defs><g id="i"><path class="cls-1" d="M287.76,391.27s9.33,10.4,28,13.7"/><path class="cls-1" d="M316.72,301.8s5.29,5.9,15.89,7.77"/><ellipse class="cls-1" cx="299.13" cy="228.77" rx="9" ry="20" transform="translate(21.92 483.66) rotate(-80.01)"/><path class="cls-1" d="M431.3,158.65s-11.94-24.45-66.1-34"/><path class="cls-2" d="M346.85,401.68s-12.33,6.59-31.05,3.29"/><path class="cls-1" d="M350.2,307.7s-7,3.74-17.59,1.87"/><ellipse class="cls-1" cx="391.7" cy="245.09" rx="9" ry="20" transform="translate(82.36 588.31) rotate(-80.01)"/><path class="cls-1" d="M369,350.75s-18.84,8.94-44.26,3.41"/><g class="cls-3"><path class="cls-4" d="M342.48,339.3c-3.89-1-14.92,1.11-14.92,1.11"/><path class="cls-4" d="M368.89,350.73s-22.53-10.42-26.41-11.43"/></g><path class="cls-1" d="M284.32,335.83s14.65,14.83,40.44,18.33"/><g class="cls-3"><path class="cls-4" d="M313.18,334.13c4,.38,13.65,6.15,13.65,6.15"/><path class="cls-4" d="M284.45,335.85s24.74-2.09,28.73-1.72"/></g><path class="cls-1" d="M291.45,134s19.58-18.88,73.75-9.34"/><path class="cls-1" d="M371,391.27s-9.34,10.4-28.05,13.7"/><path class="cls-2" d="M342,301.8s-5.29,5.9-15.89,7.77"/><ellipse class="cls-5" cx="359.61" cy="228.77" rx="20" ry="9" transform="translate(-34.24 65.87) rotate(-9.99)"/><path class="cls-5" d="M227.43,158.65s11.94-24.45,66.11-34"/><path class="cls-1" d="M311.89,401.68s12.33,6.59,31,3.29"/><path class="cls-2" d="M308.53,307.7s7,3.74,17.59,1.87"/><ellipse class="cls-5" cx="267.03" cy="245.09" rx="20" ry="9" transform="matrix(0.98, -0.17, 0.17, 0.98, -38.48, 50.06)"/><path class="cls-2" d="M289.71,350.75s18.84,8.94,44.27,3.41"/><g class="cls-6"><path class="cls-4" d="M316.26,339.3c3.88-1,14.92,1.11,14.92,1.11"/><path class="cls-4" d="M289.84,350.73s22.53-10.42,26.42-11.43"/></g><path class="cls-5" d="M374.41,335.83S359.76,350.66,334,354.16"/><g class="cls-6"><path class="cls-4" d="M345.55,334.13c-4,.38-13.64,6.15-13.64,6.15"/><path class="cls-4" d="M374.28,335.85s-24.74-2.09-28.73-1.72"/></g><path class="cls-2" d="M367.28,134s-19.58-18.88-73.74-9.34"/><path class="cls-2" d="M290.5,398.5s11,8.63,30,8.63"/><path class="cls-2" d="M303.5,305.37s6.23,4.89,17,4.89"/><ellipse class="cls-2" cx="273.5" cy="236.5" rx="20" ry="9"/><path class="cls-5" d="M391.5,144.5s-16-22-71-22"/><path class="cls-2" d="M350.5,398.5s-11,8.63-30,8.63"/><path class="cls-2" d="M337.5,305.37s-6.23,4.89-17,4.89"/><ellipse class="cls-2" cx="367.5" cy="236.5" rx="20" ry="9"/><path class="cls-2" d="M363.5,344.5s-17,12.07-43,11"/><path class="cls-2" d="M335.37,337.82c-4-.32-14.5,3.69-14.5,3.69"/><path class="cls-2" d="M363.37,344.5s-24-6.36-28-6.68"/><path class="cls-2" d="M277.5,344.5s17,12.07,43,11"/><path class="cls-2" d="M305.63,337.82c4-.32,14.5,3.69,14.5,3.69"/><path class="cls-2" d="M277.63,344.5s24-6.36,28-6.68"/><path class="cls-2" d="M249.5,144.5s16-22,71-22"/></g><g id="Layer_1" data-name="Layer 1"><line class="cls-7" x1="320" x2="320" y2="480"/><rect class="cls-8" width="8" height="8"/><rect class="cls-8" y="472" width="8" height="8"/><rect class="cls-8" x="632" y="472" width="8" height="8"/><rect class="cls-8" x="632" width="8" height="8"/></g></svg>