<svg xmlns="http://www.w3.org/2000/svg" viewBox="0 0 640 480"><defs><style>.cls-1,.cls-2,.cls-3{fill:none;}.cls-1{stroke:#73ff8c;stroke-linecap:round;stroke-width:3.05px;}.cls-1,.cls-2{stroke-miterlimit:10;}.cls-2{stroke:#000;stroke-width:8px;}</style></defs><g id="q"><ellipse class="cls-1" cx="213.44" cy="196.61" rx="35.85" ry="50" transform="translate(-75.95 218.22) rotate(-46.92)"/><polyline class="cls-1" points="383.7 318.54 395.45 370.31 429.32 423"/><polyline class="cls-1" points="243.38 358.86 260.89 408.97 260.16 471.6"/><path class="cls-1" d="M226.61,336.26s-56,18.85-71.56,18-32.94-11.63-36.68-17.87,12.66-44.29,19.35-55.84,26.12-44,26.12-44,4.64-9.35,7.32-13.69,8.3-8.87,8.3-8.87"/><path class="cls-1" d="M353.86,200.19s15.07-57.11,13.13-72.61S353.18,95.5,346.7,92.18s-43.34,15.6-54.41,23-42.18,29-42.18,29-9,5.26-13.17,8.23-8.3,8.87-8.3,8.87"/><path class="cls-1" d="M171.16,222.79c2.69-4.33,8.3-8.87,8.3-8.87"/></g><g id="Layer_1" data-name="Layer 1"><line class="cls-2" x1="320" x2="320" y2="480"/><rect class="cls-3" width="8" height="8"/><rect class="cls-3" y="472" width="8" height="8"/><rect class="cls-3" x="632" y="472" width="8" height="8"/><rect class="cls-3" x="632" width="8" height="8"/></g></svg>