<svg xmlns="http://www.w3.org/2000/svg" viewBox="0 0 640 480"><defs><style>.cls-1,.cls-2,.cls-3{fill:none;}.cls-1{stroke:#73ff8c;stroke-linecap:round;stroke-width:3.05px;}.cls-1,.cls-2{stroke-miterlimit:10;}.cls-2{stroke:#000;stroke-width:8px;}</style></defs><g id="m"><path class="cls-1" d="M358.89,369.54s27.36,11.34,46.22,32.13c7.23,8,20.82,24.83,43.39,74.83"/><path class="cls-1" d="M253.24,349.54S191.88,360.88,173,381.67c-7.23,8-28.39,47.83-51,97.83"/><path class="cls-1" d="M366.5,163.83s-10.42-14.33-46.25-14.33"/><path class="cls-1" d="M339.79,335.8s-7.16,5.62-19.54,5.62"/><path class="cls-1" d="M331.32,268.62a18.94,18.94,0,0,1-11.07,3.19"/><ellipse class="cls-1" cx="350.87" cy="226.37" rx="13.03" ry="5.86"/><path class="cls-1" d="M274,163.83s10.42-14.33,46.25-14.33"/><path class="cls-1" d="M300.71,335.8s7.16,5.62,19.54,5.62"/><path class="cls-1" d="M309.18,268.62a18.94,18.94,0,0,0,11.07,3.19"/><ellipse class="cls-1" cx="289.63" cy="226.37" rx="13.03" ry="5.86"/><line class="cls-1" x1="331.32" y1="295.86" x2="310.48" y2="295.86"/></g><g id="Layer_1" data-name="Layer 1"><line class="cls-2" x1="320" x2="320" y2="480"/><rect class="cls-3" width="8" height="8"/><rect class="cls-3" y="472" width="8" height="8"/><rect class="cls-3" x="632" y="472" width="8" height="8"/><rect class="cls-3" x="632" width="8" height="8"/></g></svg>