<svg xmlns="http://www.w3.org/2000/svg" viewBox="0 0 640 480"><defs><style>.cls-1,.cls-2,.cls-3{fill:none;}.cls-1{stroke:#73ff8c;stroke-linecap:round;stroke-width:3.05px;}.cls-1,.cls-2{stroke-miterlimit:10;}.cls-2{stroke:#000;stroke-width:8px;}</style></defs><g id="s"><ellipse class="cls-1" cx="319.5" cy="170.5" rx="35.85" ry="50"/><polyline class="cls-1" points="246.5 348.5 249.5 401.5 231.5 461.5"/><polyline class="cls-1" points="392.5 348.5 389.5 401.5 407.5 461.5"/><path class="cls-1" d="M256.51,166.18s4.24-9.39,3.91-13.37-1.16-14-2.32-15.87-2.16-1.82-3.24-2.74-2,.17-3.07-.75-1.16-1.91-2.24-2.82-5,1.41-6,.5-3.28-3.74-4.28-3.66-4.73,3.4-5.73,3.48-2.16-1.82-5.15-1.58-3.58,17.36-3.58,17.36"/><path class="cls-1" d="M224.47,142.86s-3.08-.87-3.91,1.21-2,12.21-.92,13.12,9.71,8.23,10.87,10.14-3.92,61.63-5.17,70.72.47,42.05.47,42.05c5.69,7.4,7.69,9.4,12.69,9.4"/><path class="cls-1" d="M374.9,166.18s-4.24-9.39-3.91-13.37,1.16-14,2.32-15.87,2.16-1.82,3.24-2.74,2,.17,3.07-.75,1.16-1.91,2.24-2.82,5,1.41,6,.5,3.29-3.74,4.29-3.66,4.73,3.4,5.73,3.48,2.16-1.82,5.15-1.58,3.58,17.36,3.58,17.36"/><path class="cls-1" d="M406.94,142.86s3.08-.87,3.91,1.21,2,12.21.92,13.12-9.71,8.23-10.88,10.14,3.93,61.63,5.18,70.72-.48,42.05-.48,42.05c-5.68,7.4-7.68,9.4-12.68,9.4"/></g><g id="Layer_1" data-name="Layer 1"><line class="cls-2" x1="320" x2="320" y2="480"/><rect class="cls-3" width="8" height="8"/><rect class="cls-3" y="472" width="8" height="8"/><rect class="cls-3" x="632" y="472" width="8" height="8"/><rect class="cls-3" x="632" width="8" height="8"/></g></svg>