<svg xmlns="http://www.w3.org/2000/svg" viewBox="0 0 640 480"><defs><style>.cls-1,.cls-2,.cls-3,.cls-5,.cls-6{fill:none;}.cls-1{stroke:#73ff8c;}.cls-1,.cls-2,.cls-3{stroke-linecap:round;}.cls-1,.cls-2,.cls-3,.cls-5{stroke-miterlimit:10;}.cls-1,.cls-2{stroke-width:3.05px;}.cls-2,.cls-3{stroke:#fff;}.cls-3{stroke-width:6px;}.cls-4{fill:#fff;}.cls-5{stroke:#000;stroke-width:8px;}</style></defs><g id="q"><path class="cls-1" d="M567.5,278.5s-61,3-86,3-35-6-56-14-32-32-35-37-21-21-24-23-14-12-16-13.16-12-18.84-14-19.84-6,1-8,8,0,15,6,26,26,27,24,31.63c0,0-23.22,6.11-30.77,7s-19.92.27-26.36.32-26.25-2.28-30.09-2.13-19.8.89-25.62.81-35.31-5.56-36.45,7.57,28.44,12.79,31.78,13.38,19.82,2.33,24.53,3.29,34.42,1.23,34.24,9.65S267.4,288.7,261.22,290s-28.91,6.65-34,7.05-32.93-.25-30.83,16.08,31,6.45,34.7,5.68,31.05-2.58,35.5-2.86,38.7-6.11,39.21-3.63-15.42,6.44-21.35,7.34-32.62,9-36.45,9.17-31.29,1.43-31,13.89,20.67,9.52,23.05,9.35,12.42-2.9,16.37-3.4,21.49-2.89,27.4-3.88c7.62-1.28,27.62-7.28,28.62-3.28s-13,16-20,18-19,8-23,10-9.83,5.34-7.91,9.67,5.91,5.33,10.91,4.33,13-4,21-6,22.11-6.3,32.55-9.15,24.45-.85,41.45-3.85,26-8,39-8,41,2,56,4S548,379.17,548,379.17"/><path class="cls-2" d="M293.09,438.44S302.77,446,319.5,446"/><path class="cls-2" d="M284.25,380.38c6.71.56,11.48,2,11.48,3.71,0,2.19-7.88,4-17.6,4s-17.61-1.77-17.61-4c0-.81,1.09-1.57,3-2.2"/><path class="cls-1" d="M267.12,169.07s11-25.9,48.86-25.9"/><path class="cls-1" d="M364.83,169.07s-11-25.9-48.85-25.9"/><path class="cls-2" d="M345.91,438.44S336.23,446,319.5,446"/><ellipse class="cls-2" cx="360.87" cy="384.09" rx="17.61" ry="3.96"/><path class="cls-3" d="M294.45,120.05a101.67,101.67,0,0,0-6.31,36"/><polygon class="cls-4" points="280.34 126.89 293.75 121.68 298.96 135.09 302.44 127.19 297.23 113.78 283.82 118.99 280.34 126.89"/><path class="cls-3" d="M294.45,192a101.71,101.71,0,0,1-6.31-36"/><polygon class="cls-4" points="298.96 176.97 293.75 190.39 280.34 185.17 283.82 193.08 297.23 198.29 302.44 184.88 298.96 176.97"/></g><g id="Layer_1" data-name="Layer 1"><line class="cls-5" x1="320" x2="320" y2="480"/><rect class="cls-6" width="8" height="8"/><rect class="cls-6" y="472" width="8" height="8"/><rect class="cls-6" x="632" y="472" width="8" height="8"/><rect class="cls-6" x="632" width="8" height="8"/></g></svg>