<svg xmlns="http://www.w3.org/2000/svg" viewBox="0 0 640 480"><defs><style>.cls-1,.cls-2,.cls-3{fill:none;}.cls-1{stroke:#73ff8c;stroke-linecap:round;stroke-width:3.05px;}.cls-1,.cls-2{stroke-miterlimit:10;}.cls-2{stroke:#000;stroke-width:8px;}</style></defs><g id="g"><ellipse class="cls-1" cx="319.5" cy="159.5" rx="35.85" ry="50"/><polyline class="cls-1" points="256.5 337.5 259.5 390.5 241.5 450.5"/><polyline class="cls-1" points="402.5 337.5 399.5 390.5 417.5 450.5"/><path class="cls-1" d="M290.5,223.5s-43,6-53,17-35,133-35,133l-7,106"/><path class="cls-1" d="M368.5,200.5s32.44-6.91,47-4c10,2,50-5,74,3s17,77,21,87,10,35,10,35"/></g><g id="Layer_1" data-name="Layer 1"><line class="cls-2" x1="320" x2="320" y2="480"/><rect class="cls-3" width="8" height="8"/><rect class="cls-3" y="472" width="8" height="8"/><rect class="cls-3" x="632" y="472" width="8" height="8"/><rect class="cls-3" x="632" width="8" height="8"/></g></svg>