<svg xmlns="http://www.w3.org/2000/svg" viewBox="0 0 640 480"><defs><style>.cls-1,.cls-2,.cls-3{fill:none;}.cls-1{stroke:#73ff8c;stroke-linecap:round;stroke-width:3.05px;}.cls-1,.cls-2{stroke-miterlimit:10;}.cls-2{stroke:#000;stroke-width:8px;}</style></defs><g id="a"><path class="cls-1" d="M290.5,398.5s11,8.63,30,8.63"/><path class="cls-1" d="M303.5,305.37s6.23,4.89,17,4.89"/><ellipse class="cls-1" cx="273.5" cy="236.5" rx="20" ry="9"/><path class="cls-1" d="M391.5,144.5s-16-22-71-22"/><path class="cls-1" d="M350.5,398.5s-11,8.63-30,8.63"/><path class="cls-1" d="M337.5,305.37s-6.23,4.89-17,4.89"/><ellipse class="cls-1" cx="367.5" cy="236.5" rx="20" ry="9"/><path class="cls-1" d="M363.5,344.5s-17,12.07-43,11"/><path class="cls-1" d="M335.37,337.82c-4-.32-14.5,3.69-14.5,3.69"/><path class="cls-1" d="M363.37,344.5s-24-6.36-28-6.68"/><path class="cls-1" d="M277.5,344.5s17,12.07,43,11"/><path class="cls-1" d="M305.63,337.82c4-.32,14.5,3.69,14.5,3.69"/><path class="cls-1" d="M277.63,344.5s24-6.36,28-6.68"/><path class="cls-1" d="M249.5,144.5s16-22,71-22"/></g><g id="Layer_1" data-name="Layer 1"><line class="cls-2" x1="320" x2="320" y2="480"/><rect class="cls-3" width="8" height="8"/><rect class="cls-3" y="472" width="8" height="8"/><rect class="cls-3" x="632" y="472" width="8" height="8"/><rect class="cls-3" x="632" width="8" height="8"/></g></svg>