<svg xmlns="http://www.w3.org/2000/svg" viewBox="0 0 640 480"><defs><style>.cls-1,.cls-2,.cls-3{fill:none;}.cls-1{stroke:#73ff8c;stroke-linecap:round;stroke-width:3.05px;}.cls-1,.cls-2{stroke-miterlimit:10;}.cls-2{stroke:#000;stroke-width:8px;}</style></defs><g id="k"><ellipse class="cls-1" cx="183.91" cy="250.04" rx="35.85" ry="50" transform="translate(-107.01 358.26) rotate(-74.07)"/><polyline class="cls-1" points="400.26 356.69 416.71 407.16 455.27 456.53"/><polyline class="cls-1" points="264.23 409.71 286.27 458 287.88 478.05"/><path class="cls-1" d="M77.66,57.31S90,79.67,100.85,86,223.16,147.47,234,153.78s67.32,70.81,85.51,81.72"/><path class="cls-1" d="M221.45,299.8s-17.55,24.63-18,41.51,91.09,70.32,102.1,78.19c14,10,107,43,107,43,8,3,15.26,12.64,15.26,12.64"/></g><g id="Layer_1" data-name="Layer 1"><line class="cls-2" x1="320" x2="320" y2="480"/><rect class="cls-3" width="8" height="8"/><rect class="cls-3" y="472" width="8" height="8"/><rect class="cls-3" x="632" y="472" width="8" height="8"/><rect class="cls-3" x="632" width="8" height="8"/></g></svg>