<svg xmlns="http://www.w3.org/2000/svg" viewBox="0 0 640 480"><defs><style>.cls-1,.cls-2,.cls-3{fill:none;}.cls-1{stroke:#73ff8c;stroke-linecap:round;stroke-width:3.05px;}.cls-1,.cls-2{stroke-miterlimit:10;}.cls-2{stroke:#000;stroke-width:8px;}</style></defs><g id="t"><path class="cls-1" d="M490.43,2.5c.27,6.89.38,12.84.24,17.22-.77,23.79-8.28,144,31.79,154a87.4,87.4,0,0,0,10.42,2"/><path class="cls-1" d="M69.88,474.5c-8.26-15.14-15.15-27.66-22.62-34.09C34.79,429.7,16.07,408.8,3.5,393.86"/><path class="cls-1" d="M635.5,50.35,590,123.21c-7.58,10.38-14,18.8-17.46,23-11.32,13.58-10.36,33.29-39.66,29.56"/><path class="cls-1" d="M3.5,244.28c28.63,7.4,60.08,27.11,73.22,49.64C94.25,324,144.33,394.09,144.33,394.09s5-95.16,2.51-125.21-15-77.63-20-102.67S96.75,66,94.25,51C93,43.35,89.74,23.3,86.21,2.5"/><path class="cls-1" d="M366.76,2.5c2.91,45.26,7.67,128.65,15.47,128.65,10,0,12.57-65.11,11.29-88.89-.38-7.13.25-22,1.25-39.76"/><path class="cls-1" d="M184.52,2.5c.88,2.32,1.69,4.33,2.38,5.95C194.41,26,219.46,141.17,252,133.66c25.8-6,15.43-85.8,10-131.16"/></g><g id="Layer_1" data-name="Layer 1"><line class="cls-2" x1="320" x2="320" y2="480"/><rect class="cls-3" width="8" height="8"/><rect class="cls-3" y="472" width="8" height="8"/><rect class="cls-3" x="632" y="472" width="8" height="8"/><rect class="cls-3" x="632" width="8" height="8"/></g></svg>