<?xml version="1.0" encoding="utf-8"?>
<!-- Generator: Adobe Illustrator 25.0.0, SVG Export Plug-In . SVG Version: 6.00 Build 0)  -->
<svg version="1.1" id="Layer_1" xmlns="http://www.w3.org/2000/svg" xmlns:xlink="http://www.w3.org/1999/xlink" x="0px" y="0px"
	 viewBox="0 0 640 480" style="enable-background:new 0 0 640 480;" xml:space="preserve">
<style type="text/css">
	.st0{fill:none;stroke:#FFFFFF;stroke-width:3.87;stroke-miterlimit:10;}
	.st1{fill:none;stroke:#000000;stroke-width:8;stroke-miterlimit:10;}
	.st2{fill:#73FF8C;}
	.st3{font-family:'Futura-Bold';}
	.st4{font-size:50px;}
	.st5{fill:none;}
</style>
<g id="Layer_1_1_">
	<ellipse class="st0" cx="320" cy="240" rx="132" ry="175.4"/>
	<ellipse class="st0" cx="266" cy="207.1" rx="22.3" ry="12.9"/>
	<ellipse class="st0" cx="376.9" cy="207.7" rx="22.3" ry="12.9"/>
	<path class="st0" d="M289.8,271.1c0,0,24.6,16.4,59.8,0"/>
	<path class="st0" d="M384,310c0,25.7-28.5,46.6-63.7,46.6s-63.7-20.9-63.7-46.6H384z"/>
	<line class="st1" x1="320" y1="0" x2="320" y2="480"/>
	<circle class="st2" cx="73" cy="64" r="34"/>
	<text transform="matrix(1 0 0 1 55.98 82.68)" class="st3 st4">1</text>
	<rect class="st5" width="8" height="8"/>
	<rect y="472" class="st5" width="8" height="8"/>
	<rect x="632" y="472" class="st5" width="8" height="8"/>
	<rect x="632" class="st5" width="8" height="8"/>
</g>
</svg>
