<?xml version="1.0" encoding="utf-8"?>
<!-- Generator: Adobe Illustrator 25.0.0, SVG Export Plug-In . SVG Version: 6.00 Build 0)  -->
<svg version="1.1" id="Layer_1" xmlns="http://www.w3.org/2000/svg" xmlns:xlink="http://www.w3.org/1999/xlink" x="0px" y="0px"
	 viewBox="0 0 640 480" style="enable-background:new 0 0 640 480;" xml:space="preserve">
<style type="text/css">
	.st0{fill:none;stroke:#FFFFFF;stroke-width:3.87;stroke-miterlimit:10;}
	.st1{fill:none;stroke:#000000;stroke-width:8;stroke-miterlimit:10;}
	.st2{fill:#73FF8C;}
	.st3{font-family:'Futura-Bold';}
	.st4{font-size:50px;}
	.st5{fill:none;}
</style>
<g id="Layer_1_1_">
	<ellipse transform="matrix(0.3494 -0.937 0.937 0.3494 -16.6776 455.9632)" class="st0" cx="320" cy="240" rx="175.4" ry="132"/>
	<ellipse transform="matrix(0.3494 -0.937 0.937 0.3494 4.4089 387.0365)" class="st0" cx="280.9" cy="190.3" rx="12.9" ry="22.3"/>
	
		<ellipse transform="matrix(0.3494 -0.937 0.937 0.3494 35.0384 509.7511)" class="st0" cx="384.6" cy="229.6" rx="12.9" ry="22.3"/>
	<path class="st0" d="M280.8,258.6c0,0,17.4,24,56.1,20.9"/>
	<path class="st0" d="M329,334.1c-3,7.9-22.6,7.9-43.8-0.1s-36.1-20.7-33.1-28.6L329,334.1z"/>
	<line class="st1" x1="320" y1="0" x2="320" y2="480"/>
	<circle class="st2" cx="73" cy="64" r="34"/>
	<text transform="matrix(1 0 0 1 55.98 82.68)" class="st3 st4">1</text>
	<rect class="st5" width="8" height="8"/>
	<rect y="472" class="st5" width="8" height="8"/>
	<rect x="632" y="472" class="st5" width="8" height="8"/>
	<rect x="632" class="st5" width="8" height="8"/>
</g>
</svg>
