<svg xmlns="http://www.w3.org/2000/svg" viewBox="0 0 640 480"><defs><style>.cls-1,.cls-3,.cls-4{fill:none;}.cls-1{stroke:#ed1e79;stroke-linecap:round;stroke-width:3.05px;}.cls-1,.cls-3{stroke-miterlimit:10;}.cls-2{fill:#fff;}.cls-3{stroke:#000;stroke-width:8px;}</style></defs><g id="end"><path class="cls-1" d="M249,158s16-22,71-22"/><path class="cls-1" d="M290,412s11,8.63,30,8.63"/><ellipse class="cls-1" cx="273" cy="248" rx="20" ry="9"/><path class="cls-1" d="M391,158s-16-22-71-22"/><path class="cls-1" d="M350,412s-11,8.63-30,8.63"/><ellipse class="cls-1" cx="367" cy="248" rx="20" ry="9"/><path class="cls-2" d="M305.16,346.33V319.17c1.12.19,2.14.35,3.07.49a17.79,17.79,0,0,0,2.65.21,23.59,23.59,0,0,0,7.1-1.05,19.5,19.5,0,0,0,5.78-2.85,13.39,13.39,0,0,0,3.83-4.39,11.66,11.66,0,0,0,1.39-5.64,10.42,10.42,0,0,0-2.78-7.24,9.66,9.66,0,0,0-7.53-3.07,8.74,8.74,0,0,0-6.89,2.93,11.15,11.15,0,0,0-2.58,7.66H281.49a29.65,29.65,0,0,1,2.85-13,31.75,31.75,0,0,1,7.94-10.3,37,37,0,0,1,12-6.83,44.77,44.77,0,0,1,15-2.43,39.78,39.78,0,0,1,15,2.71,36.69,36.69,0,0,1,11.63,7.31,32.5,32.5,0,0,1,7.52,10.59A30.27,30.27,0,0,1,356,306.63q0,20.89-25.21,29.67v10Zm-2.78,21.86a16.3,16.3,0,1,1,31.34,6.34,16.12,16.12,0,0,1-8.71,8.71,16.68,16.68,0,0,1-12.67,0,16.12,16.12,0,0,1-8.71-8.71A16.33,16.33,0,0,1,302.38,368.19Z"/></g><g id="Layer_1" data-name="Layer 1"><line class="cls-3" x1="320" x2="320" y2="480"/><rect class="cls-4" width="8" height="8"/><rect class="cls-4" y="472" width="8" height="8"/><rect class="cls-4" x="632" y="472" width="8" height="8"/><rect class="cls-4" x="632" width="8" height="8"/></g></svg>