<svg xmlns="http://www.w3.org/2000/svg" viewBox="0 0 640 482.49"><defs><style>.cls-1,.cls-2,.cls-4,.cls-5{fill:none;}.cls-1{stroke:#ed1e79;stroke-width:3.05px;}.cls-1,.cls-2{stroke-linecap:round;}.cls-1,.cls-2,.cls-4{stroke-miterlimit:10;}.cls-2{stroke:#fff;stroke-width:6px;}.cls-3{fill:#fff;}.cls-4{stroke:#000;stroke-width:8px;}</style></defs><g id="Layer_11" data-name="Layer 11"><path class="cls-1" d="M320,86.17"/><path class="cls-1" d="M352.53,481a67,67,0,0,0,2.82-19.46c0-27.61-16.05-50-35.85-50s-35.85,22.39-35.85,50a67.52,67.52,0,0,0,2.58,18.66"/><path class="cls-1" d="M199.34,480S201.5,350.61,319.5,350.61,449.05,480.16,449.05,480.16"/><path class="cls-2" d="M280.5,264s-27,56.64-2.86,113.42"/><polygon class="cls-3" points="263.47 370.76 276.94 375.84 282 362.37 285.57 370.24 280.5 383.7 267.04 378.63 263.47 370.76"/></g><g id="Layer_1" data-name="Layer 1"><line class="cls-4" x1="320" x2="320" y2="480"/><rect class="cls-5" width="8" height="8"/><rect class="cls-5" y="472" width="8" height="8"/><rect class="cls-5" x="632" y="472" width="8" height="8"/><rect class="cls-5" x="632" width="8" height="8"/></g></svg>