<svg xmlns="http://www.w3.org/2000/svg" viewBox="0 0 640 480"><defs><style>.cls-1,.cls-2,.cls-3{fill:none;}.cls-1{stroke:#ed1e79;stroke-linecap:round;stroke-width:3.05px;}.cls-1,.cls-2{stroke-miterlimit:10;}.cls-2{stroke:#000;stroke-width:8px;}</style></defs><g id="Layer_31" data-name="Layer 31"><path class="cls-1" d="M320,86.17"/><path class="cls-1" d="M319.5,97.5A28.29,28.29,0,0,0,301.87,104"/><path class="cls-1" d="M303.16,192a27.87,27.87,0,0,0,16.34,5.49"/><path class="cls-1" d="M280.5,211.5s-43,6-53,17c-2.37,2.61-5.58,12-9.11,24.89"/><polyline class="cls-1" points="246.5 325.5 249.5 378.5 231.5 438.5"/><path class="cls-1" d="M320.24,97.5A28.33,28.33,0,0,1,337.88,104"/><path class="cls-1" d="M336.59,192a27.9,27.9,0,0,1-16.35,5.49"/><path class="cls-1" d="M359.24,211.5s43.05,6,53,17c2.37,2.61,5.59,12,9.11,24.89"/><polyline class="cls-1" points="393.24 325.5 390.24 378.5 408.24 438.5"/></g><g id="Layer_1" data-name="Layer 1"><line class="cls-2" x1="320" x2="320" y2="480"/><rect class="cls-3" width="8" height="8"/><rect class="cls-3" y="472" width="8" height="8"/><rect class="cls-3" x="632" y="472" width="8" height="8"/><rect class="cls-3" x="632" width="8" height="8"/></g></svg>