<svg xmlns="http://www.w3.org/2000/svg" viewBox="0 0 640 482.28"><defs><style>.cls-1,.cls-2,.cls-3,.cls-5,.cls-7,.cls-8{fill:none;}.cls-1,.cls-3{stroke:#ed1e79;}.cls-1,.cls-2,.cls-3,.cls-5{stroke-linecap:round;}.cls-1,.cls-2,.cls-3,.cls-5,.cls-7{stroke-miterlimit:10;}.cls-1,.cls-2{stroke-width:3.05px;}.cls-2,.cls-5{stroke:#fff;}.cls-3,.cls-5{stroke-width:5px;}.cls-4{fill:#ed1e79;}.cls-6{fill:#fff;}.cls-7{stroke:#000;stroke-width:8px;}</style></defs><g id="Layer_27" data-name="Layer 27"><path class="cls-1" d="M414.31,480.75S367.5,447.5,361.5,437.5s-6-17-13-28-15-28.14-28.5-36.07-31.5-10.93-36.5-17.93-22-30-29-25-5,26,8,39,33,17,33,17-26-5-32-6-19,0-21-3-6-10-6-10-9,11-5,17,18.11,10.55,17.06,20.77S238.5,413.5,238.5,422.5s6,10,6,16-4,6-4,13,1.33,20,6.66,20.5,13.24,8.75,13.24,8.75"/><path class="cls-1" d="M211.5,162.5s-15,57-14,69,14,28.39,14,32.19-8.05,30.21-7,33.51,9,5.3,11,9.3,0,14,3,19"/><path class="cls-1" d="M364.5,237.5s9-23,23-13,0,66.72-11.5,65.86-11.5-7.52-11.5-7.52"/><path class="cls-1" d="M272,107.5s55.84-21,85.92,0"/><path class="cls-2" d="M222.59,480.75S269.4,447.5,275.4,437.5s6-17,13-28,15-28.14,28.5-36.07,31.5-10.93,36.5-17.93,22-30,29-25,5,26-8,39-33,17-33,17,26-5,32-6,19,0,21-3,6-10,6-10,9,11,5,17-18.11,10.55-17,20.77,10,8.23,10,17.23-6,10-6,16,4,6,4,13-1.32,20-6.66,20.5-13.23,8.75-13.23,8.75"/><path class="cls-2" d="M425.4,162.5s15,57,14,69-14,28.39-14,32.19,8.05,30.21,7,33.51-9,5.3-11,9.3,0,14-3,19"/><path class="cls-2" d="M272.4,237.5s-9-23-23-13,0,66.72,11.5,65.86,11.5-7.52,11.5-7.52"/><path class="cls-3" d="M277.22,317.57A114.16,114.16,0,0,0,320,325.5"/><polygon class="cls-4" points="282.81 329.37 278.59 318.14 289.81 313.93 283.26 310.95 272.04 315.17 276.26 326.39 282.81 329.37"/><path class="cls-5" d="M362.85,317.57a114,114,0,0,1-42.77,7.93"/><polygon class="cls-6" points="350.26 313.93 361.49 318.14 357.26 329.37 363.82 326.39 368.04 315.17 356.82 310.95 350.26 313.93"/></g><g id="Layer_1" data-name="Layer 1"><line class="cls-7" x1="320" x2="320" y2="480"/><rect class="cls-8" width="8" height="8"/><rect class="cls-8" y="472" width="8" height="8"/><rect class="cls-8" x="632" y="472" width="8" height="8"/><rect class="cls-8" x="632" width="8" height="8"/></g></svg>