<svg xmlns="http://www.w3.org/2000/svg" viewBox="0 0 640 480"><defs><style>.cls-1,.cls-2,.cls-4,.cls-5{fill:none;}.cls-1{stroke:#ed1e79;stroke-width:3.05px;}.cls-1,.cls-2{stroke-linecap:round;}.cls-1,.cls-2,.cls-4{stroke-miterlimit:10;}.cls-2{stroke:#fff;stroke-width:6px;}.cls-3{fill:#fff;}.cls-4{stroke:#000;stroke-width:8px;}</style></defs><g id="Layer_20" data-name="Layer 20"><path class="cls-1" d="M340,85.17"/><ellipse class="cls-1" cx="339.5" cy="146.5" rx="35.85" ry="50"/><path class="cls-1" d="M300.5,210.5s-23-4-33,7-19,154-19,154l-18,85"/><polyline class="cls-1" points="266.5 324.5 269.5 377.5 251.5 437.5"/><path class="cls-1" d="M375.5,196.5s37,2,47,13,19,20,19,20l60-2s49.63-19,50.32-14.5-32.77,16.5-32.77,16.5,47.45,12,46.45,15-41.24,0-41.24,0,43.27,25.49,41.26,28.74-49-20.74-49-20.74,31,37,28,40-41-36-41-36,14,44,11,44-20-46-27-47-17-.37-17-.37"/><polyline class="cls-1" points="412.5 324.5 409.5 377.5 427.5 437.5"/><path class="cls-2" d="M461.83,410.32s30.22-31.27,33.84-78.47"/><polygon class="cls-3" points="505.05 344.37 495.5 333.62 484.75 343.18 485.25 334.56 496 325 505.56 335.75 505.05 344.37"/></g><g id="Layer_1" data-name="Layer 1"><line class="cls-4" x1="320" x2="320" y2="480"/><rect class="cls-5" width="8" height="8"/><rect class="cls-5" y="472" width="8" height="8"/><rect class="cls-5" x="632" y="472" width="8" height="8"/><rect class="cls-5" x="632" width="8" height="8"/></g></svg>