<svg xmlns="http://www.w3.org/2000/svg" viewBox="0 0 640 482.28"><defs><style>.cls-1,.cls-2,.cls-3,.cls-4{fill:none;}.cls-1,.cls-2{stroke:#ed1e79;stroke-linecap:round;}.cls-1,.cls-2,.cls-3{stroke-miterlimit:10;}.cls-1{stroke-width:3.05px;}.cls-2{stroke-width:1.87px;}.cls-3{stroke:#000;stroke-width:8px;}</style></defs><g id="Layer_26" data-name="Layer 26"><path class="cls-1" d="M249,153s16-22,71-22"/><path class="cls-1" d="M303,279.87s6.23,4.89,17,4.89"/><ellipse class="cls-1" cx="276.5" cy="228.5" rx="20" ry="9"/><path class="cls-1" d="M391,153s-16-22-71-22"/><path class="cls-1" d="M337,279.87s-6.23,4.89-17,4.89"/><ellipse class="cls-1" cx="363.5" cy="228.5" rx="20" ry="9"/><path class="cls-2" d="M290,312s11.86,6.52,30,6"/><path class="cls-2" d="M350,312s-11.86,6.52-30,6"/><path class="cls-2" d="M290,312s11.86,3.53,30,3.23"/><path class="cls-2" d="M350,312s-11.86,3.53-30,3.23"/><path class="cls-1" d="M293.5,480.75s-26-22.25-36-34.25-21-38-18-43,20-13,20-13,1-12,4-14,10-4.61,10-4.61,5-13.16,11-13.78-6-10.15-11-13.38-22-17.53-24.5-20.88-9.5-13.35-6.5-18.35,19.5,6.24,23.75,8.12,15.25,11.75,18.25,12.32,32,21.21,35.5,23.38,22.5,22.25,27.5,19.22,13-30,14-35,14-31,18-33,9.36-3,10.18,0-9.18,22-9.18,26-3,18-3,21v27c0,6,4,57.9,10,65.45s40.6,40.8,40.6,40.8"/></g><g id="Layer_1" data-name="Layer 1"><line class="cls-3" x1="320" x2="320" y2="480"/><rect class="cls-4" width="8" height="8"/><rect class="cls-4" y="472" width="8" height="8"/><rect class="cls-4" x="632" y="472" width="8" height="8"/><rect class="cls-4" x="632" width="8" height="8"/></g></svg>