<svg xmlns="http://www.w3.org/2000/svg" viewBox="0 0 640 480"><defs><style>.cls-1,.cls-2,.cls-3,.cls-5,.cls-7,.cls-8{fill:none;}.cls-1,.cls-5{stroke:#fff;}.cls-1,.cls-2,.cls-3,.cls-5{stroke-linecap:round;}.cls-1,.cls-2,.cls-3,.cls-5,.cls-7{stroke-miterlimit:10;}.cls-1,.cls-2{stroke-width:3.05px;}.cls-2,.cls-3{stroke:#ed1e79;}.cls-3,.cls-5{stroke-width:5px;}.cls-4{fill:#ed1e79;}.cls-6{fill:#fff;}.cls-7{stroke:#000;stroke-width:8px;}</style></defs><g id="Layer_25" data-name="Layer 25"><path class="cls-1" d="M249.5,273.5s16-6.5,71-6.5"/><path class="cls-1" d="M290.5,457.5s11,8.63,30,8.63"/><ellipse class="cls-1" cx="273.5" cy="368.5" rx="20" ry="4.5"/><path class="cls-1" d="M391.5,273.5s-16-6.5-71-6.5"/><path class="cls-2" d="M261,151.5s12.51-29.42,55.5-29.42"/><path class="cls-2" d="M372,151.5s-12.51-29.42-55.5-29.42"/><path class="cls-1" d="M350.5,457.5s-11,8.63-30,8.63"/><ellipse class="cls-1" cx="367.5" cy="368.5" rx="20" ry="4.5"/><path class="cls-3" d="M292.81,199.52a114.16,114.16,0,0,0-7.93,42.78"/><polygon class="cls-4" points="281.01 205.11 292.23 200.89 296.45 212.11 299.42 205.56 295.2 194.34 283.98 198.56 281.01 205.11"/><path class="cls-5" d="M292.81,285.15a114.1,114.1,0,0,1-7.93-42.77"/><polygon class="cls-6" points="296.45 272.56 292.23 283.79 281.01 279.56 283.98 286.12 295.2 290.34 299.42 279.12 296.45 272.56"/></g><g id="Layer_1" data-name="Layer 1"><line class="cls-7" x1="320" x2="320" y2="480"/><rect class="cls-8" width="8" height="8"/><rect class="cls-8" y="472" width="8" height="8"/><rect class="cls-8" x="632" y="472" width="8" height="8"/><rect class="cls-8" x="632" width="8" height="8"/></g></svg>