<svg xmlns="http://www.w3.org/2000/svg" viewBox="0 0 640 482.28"><defs><style>.cls-1,.cls-2,.cls-3,.cls-4{fill:none;}.cls-1{stroke:#ed1e79;stroke-width:3.05px;}.cls-1,.cls-2{stroke-linecap:round;}.cls-1,.cls-2,.cls-3{stroke-miterlimit:10;}.cls-2{stroke:#fff;stroke-width:5.94px;}.cls-3{stroke:#000;stroke-width:8px;}</style></defs><g id="Layer_22" data-name="Layer 22"><path class="cls-1" d="M303,298.87s6.23,4.89,17,4.89"/><ellipse class="cls-1" cx="273" cy="246" rx="20" ry="9"/><path class="cls-1" d="M337,298.87s-6.23,4.89-17,4.89"/><ellipse class="cls-1" cx="367" cy="246" rx="20" ry="9"/><path class="cls-1" d="M290,402s11,8.63,30,8.63"/><path class="cls-1" d="M249,163s16-22,71-22"/><path class="cls-1" d="M391,163s-16-22-71-22"/><path class="cls-1" d="M350.28,402s-11,8.63-30,8.63"/><path class="cls-1" d="M280.5,373.5s23-25.19,39.5-16.59,43.5-11.41,43.5-11.41"/><path class="cls-1" d="M33.84,480.75A92,92,0,0,1,60.5,442.5c20-17,81-65,91-74s29-29,41-32,64-10,72-4,6,21,6,21"/><path class="cls-1" d="M241.82,345.5s28.68,7,31.18,14-5.5,29-5.5,29"/><path class="cls-1" d="M214.5,355.5s45,14,50,21,2,16.31,0,20.65-14.36,25-22.68,29.68"/><path class="cls-1" d="M214.5,381.77s32,13.53,34.5,18.13-1.5,30.6-24.5,37.6-31,9-33,5"/><path class="cls-1" d="M138,480.75S173.5,455.5,179.5,447.5s12-21,16-24,18-10,19-6,0,9.34,0,9.34"/><path class="cls-1" d="M220.58,330.14s6.92-11.64,7.92-17.64-1-19.43-1-19.43"/><path class="cls-1" d="M620.48,442.9a92,92,0,0,0-28.16-37.16c-20.67-16.19-83.53-61.72-93.88-70.31s-30.14-27.82-42.25-30.34-64.35-7.44-72.1-1.12-5.16,21.22-5.16,21.22"/><path class="cls-1" d="M407.27,316.05s-28.38,8.14-30.6,15.23S383.33,360,383.33,360"/><path class="cls-1" d="M435,325s-44.41,15.79-49.12,23-1.35,16.37.82,20.64S402,393,410.51,397.31"/><path class="cls-1" d="M436,351.2s-31.44,14.8-33.75,19.49,2.72,30.52,26,36.6S459.58,415,461.42,411"/><path class="cls-1" d="M516.5,454.5s-36.58-31.26-42.89-39-12.83-20.5-16.94-23.34-18.39-9.3-19.23-5.25.37,9.33.37,9.33"/><path class="cls-1" d="M427.89,299.86s-7.39-11.36-8.63-17.31.19-19.46.19-19.46"/><path class="cls-2" d="M179.91,315.62s-13.06,10.16-21.18,22.43"/><path class="cls-2" d="M161.24,311.37s-13.06,10.17-21.17,22.43"/><path class="cls-2" d="M493,311.76s-11.13-12.25-24-19.41"/><path class="cls-2" d="M495.82,292.83s-11.13-12.25-24-19.41"/></g><g id="Layer_1" data-name="Layer 1"><line class="cls-3" x1="320" x2="320" y2="480"/><rect class="cls-4" width="8" height="8"/><rect class="cls-4" y="472" width="8" height="8"/><rect class="cls-4" x="632" y="472" width="8" height="8"/><rect class="cls-4" x="632" width="8" height="8"/></g></svg>