<svg xmlns="http://www.w3.org/2000/svg" viewBox="0 0 640 480"><defs><style>.cls-1,.cls-2,.cls-3{fill:none;}.cls-1{stroke:#ed1e79;stroke-linecap:round;stroke-width:3.05px;}.cls-1,.cls-2{stroke-miterlimit:10;}.cls-2{stroke:#000;stroke-width:8px;}</style></defs><g id="Layer_17" data-name="Layer 17"><path class="cls-1" d="M249,161s16-22,71-22"/><path class="cls-1" d="M290,425s11,8.63,30,8.63"/><path class="cls-1" d="M303,321.87s6.23,4.89,17,4.89"/><ellipse class="cls-1" cx="273" cy="257" rx="20" ry="9"/><path class="cls-1" d="M391,161s-16-22-71-22"/><path class="cls-1" d="M350,425s-11,8.63-30,8.63"/><path class="cls-1" d="M337,321.87s-6.23,4.89-17,4.89"/><ellipse class="cls-1" cx="367" cy="257" rx="20" ry="9"/><path class="cls-1" d="M268,349s20.56,43.5,52,39.77"/><path class="cls-1" d="M372,349s-20.56,43.5-52,39.77"/><path class="cls-1" d="M268,349s20.56,6.52,52,6"/><path class="cls-1" d="M372,349s-20.56,6.52-52,6"/></g><g id="Layer_1" data-name="Layer 1"><line class="cls-2" x1="320" x2="320" y2="480"/><rect class="cls-3" width="8" height="8"/><rect class="cls-3" y="472" width="8" height="8"/><rect class="cls-3" x="632" y="472" width="8" height="8"/><rect class="cls-3" x="632" width="8" height="8"/></g></svg>