<svg xmlns="http://www.w3.org/2000/svg" viewBox="0 0 640 481.92"><defs><style>.cls-1,.cls-2,.cls-4,.cls-5{fill:none;}.cls-1{stroke:#ed1e79;stroke-width:3.05px;}.cls-1,.cls-2{stroke-linecap:round;}.cls-1,.cls-2,.cls-4{stroke-miterlimit:10;}.cls-2{stroke:#fff;stroke-width:6px;}.cls-3{fill:#fff;}.cls-4{stroke:#000;stroke-width:8px;}</style></defs><g id="Layer_23" data-name="Layer 23"><path class="cls-1" d="M205.56,121.8"/><ellipse class="cls-1" cx="183.9" cy="203.1" rx="35.85" ry="50" transform="translate(-89.36 223) rotate(-52.01)"/><polyline class="cls-1" points="366.46 313.61 384.34 363.6 424.28 411.85"/><polyline class="cls-1" points="231.99 370.47 255.39 418.12 262.18 480.39"/><path class="cls-1" d="M35.5,23.5s13,22,24,28,124,58,135,64,83,33,98,48,40,52,40,52"/><path class="cls-1" d="M197.5,275.5s-20.95,21.23-21,38.11,8,89.28,10.49,102.59,4.76,64.19,4.76,64.19"/><path class="cls-2" d="M77.07,103S-23,290,116,354C242.14,412.08,472.23,412.39,513.73,412"/><polygon class="cls-3" points="493.94 436.49 489.83 432.11 511.43 411.89 489.68 391.83 493.76 387.42 520.24 411.86 493.94 436.49"/></g><g id="Layer_1" data-name="Layer 1"><line class="cls-4" x1="320" x2="320" y2="480"/><rect class="cls-5" width="8" height="8"/><rect class="cls-5" y="472" width="8" height="8"/><rect class="cls-5" x="632" y="472" width="8" height="8"/><rect class="cls-5" x="632" width="8" height="8"/></g></svg>