<svg xmlns="http://www.w3.org/2000/svg" viewBox="0 0 640 480"><defs><style>.cls-1,.cls-2,.cls-4,.cls-5{fill:none;}.cls-1{stroke:#ed1e79;stroke-width:3.05px;}.cls-1,.cls-2{stroke-linecap:round;}.cls-1,.cls-2,.cls-4{stroke-miterlimit:10;}.cls-2{stroke:#fff;stroke-width:6px;}.cls-3{fill:#fff;}.cls-4{stroke:#000;stroke-width:8px;}</style></defs><g id="Layer_18" data-name="Layer 18"><path class="cls-1" d="M320,86.17"/><ellipse class="cls-1" cx="319.5" cy="147.5" rx="35.85" ry="50"/><path class="cls-1" d="M280.5,211.5s-43,6-53,17-35,143-35,143l-17,96"/><polyline class="cls-1" points="246.5 325.5 249.5 378.5 231.5 438.5"/><path class="cls-1" d="M340.5,197.5s43-29,53-18,82,92,82,92l41,126"/><polyline class="cls-1" points="392.5 325.5 389.5 378.5 407.5 438.5"/><path class="cls-2" d="M423.83,224.32s23.67-26.41-5.69-53.82"/><polygon class="cls-3" points="433.81 170.6 419.46 171.68 420.55 186.03 414 180.4 412.91 166.06 427.26 164.97 433.81 170.6"/></g><g id="Layer_1" data-name="Layer 1"><line class="cls-4" x1="320" x2="320" y2="480"/><rect class="cls-5" width="8" height="8"/><rect class="cls-5" y="472" width="8" height="8"/><rect class="cls-5" x="632" y="472" width="8" height="8"/><rect class="cls-5" x="632" width="8" height="8"/></g></svg>