<svg xmlns="http://www.w3.org/2000/svg" viewBox="0 0 640 480"><defs><style>.cls-1,.cls-2,.cls-3,.cls-4{fill:none;}.cls-1{stroke:#ed1e79;stroke-width:3.05px;}.cls-1,.cls-2{stroke-linecap:round;}.cls-1,.cls-2,.cls-3{stroke-miterlimit:10;}.cls-2{stroke:#fff;stroke-width:6px;}.cls-3{stroke:#000;stroke-width:8px;}</style></defs><g id="Layer_30" data-name="Layer 30"><path class="cls-1" d="M320,86.17"/><ellipse class="cls-1" cx="319.5" cy="147.5" rx="35.85" ry="50"/><path class="cls-1" d="M280.5,211.5s-35,6-45,17-20.08,116.06-15,124c9,14,110,26,110,26,18,2,39,11,39,11,6,0-12-12-10-13s22.14,6,23.07,5.5-19.07-12.5-19.07-12.5,22,8,22,4-27-12-27-12,25,4,25,2-35-12-35-12,16-7,18-9-26,4-31,4-25-4-25-4"/><path class="cls-1" d="M411.5,251.5s8-50,8-63c0-15.26-20-86-37-97s-102-8-114,9,19,69,19,69"/><polyline class="cls-1" points="392.5 325.5 389.5 378.5 407.5 438.5"/><line class="cls-2" x1="258" y1="157" x2="270.64" y2="157"/><line class="cls-2" x1="264.32" y1="176.16" x2="274" y2="166"/><line class="cls-2" x1="369" y1="400" x2="365" y2="416"/><line class="cls-2" x1="381" y1="394" x2="389.5" y2="408"/></g><g id="Layer_1" data-name="Layer 1"><line class="cls-3" x1="320" x2="320" y2="480"/><rect class="cls-4" width="8" height="8"/><rect class="cls-4" y="472" width="8" height="8"/><rect class="cls-4" x="632" y="472" width="8" height="8"/><rect class="cls-4" x="632" width="8" height="8"/></g></svg>