<svg xmlns="http://www.w3.org/2000/svg" viewBox="0 0 640 480"><defs><style>.cls-1,.cls-2,.cls-4,.cls-5{fill:none;}.cls-1{stroke:#ed1e79;stroke-width:3.05px;}.cls-1,.cls-2{stroke-linecap:round;}.cls-1,.cls-2,.cls-4{stroke-miterlimit:10;}.cls-2{stroke:#fff;stroke-width:6px;}.cls-3{fill:#fff;}.cls-4{stroke:#000;stroke-width:8px;}</style></defs><g id="Layer_21" data-name="Layer 21"><path class="cls-1" d="M300,105.17"/><ellipse class="cls-1" cx="296.5" cy="184.5" rx="35.85" ry="50"/><path class="cls-2" d="M360,354V316.86"/><polygon class="cls-3" points="370.17 328.81 360 318.63 349.83 328.81 349.83 320.17 360 310 370.17 320.17 370.17 328.81"/><path class="cls-2" d="M77.07,436.1S54.82,398.73,62.12,352"/><polygon class="cls-3" points="70.16 365.5 61.89 353.72 50.12 362 51.6 353.49 63.37 345.22 71.64 356.99 70.16 365.5"/><path class="cls-1" d="M251.5,203.5c-27,0-103-17-113-17s-45-19-57-13-31,48-40,52S9.5,269.15,8,273.82.5,314.38,4,313.44,22.5,271.5,22.5,271.5,1.5,327.73,8,328.61,36.5,274.5,36.5,274.5s-24,66-21,66,27-53,27-53-13.76,58-10.38,57.5S61.5,279.5,63.5,279.5s-7,44-3,44,15.71-67.67,21.35-74.33"/><path class="cls-1" d="M186.5,299.5s4,60,4,72-17,88-17,88"/><path class="cls-1" d="M344,216.5c13.53,7,45.53,59,48.53,64S416.94,345,416.94,345"/><path class="cls-1" d="M300,430.32s23.5-64.82,54.5-60.82S409.65,476,409.65,476"/></g><g id="Layer_1" data-name="Layer 1"><line class="cls-4" x1="320" x2="320" y2="480"/><rect class="cls-5" width="8" height="8"/><rect class="cls-5" y="472" width="8" height="8"/><rect class="cls-5" x="632" y="472" width="8" height="8"/><rect class="cls-5" x="632" width="8" height="8"/></g></svg>