<svg xmlns="http://www.w3.org/2000/svg" viewBox="0 0 640 480"><defs><style>.cls-1,.cls-2,.cls-3,.cls-5,.cls-6{fill:none;}.cls-1,.cls-2{stroke:#ed1e79;}.cls-1,.cls-2,.cls-3{stroke-linecap:round;}.cls-1,.cls-2,.cls-3,.cls-5{stroke-miterlimit:10;}.cls-1{stroke-width:3.05px;}.cls-2{stroke-width:2.75px;}.cls-3{stroke:#fff;stroke-width:6px;}.cls-4{fill:#fff;}.cls-5{stroke:#000;stroke-width:8px;}</style></defs><g id="Layer_26" data-name="Layer 26"><path class="cls-1" d="M450,106.17"/><ellipse class="cls-2" cx="464.5" cy="167.5" rx="32.26" ry="45"/><path class="cls-1" d="M492.5,223.5s20.09,22.28,20.58,32.31-9.58,69.88-4.6,90,16.65,65.79,15.74,83.77-9.39,48.08-9.39,48.08"/><path class="cls-3" d="M423,422s-218.91,36-306-16S217,339,261,339c166.54,0,311.94,35,344.13,43.3"/><polygon class="cls-4" points="590.97 389.08 603.41 381.85 596.17 369.41 604.52 371.62 611.76 384.06 599.32 391.29 590.97 389.08"/></g><g id="Layer_1" data-name="Layer 1"><line class="cls-5" x1="320" x2="320" y2="480"/><rect class="cls-6" width="8" height="8"/><rect class="cls-6" y="472" width="8" height="8"/><rect class="cls-6" x="632" y="472" width="8" height="8"/><rect class="cls-6" x="632" width="8" height="8"/></g></svg>