<svg xmlns="http://www.w3.org/2000/svg" viewBox="0 0 640 481.53"><defs><style>.cls-1,.cls-2,.cls-3{fill:none;}.cls-1{stroke:#ed1e79;stroke-linecap:round;stroke-width:3.05px;}.cls-1,.cls-2{stroke-miterlimit:10;}.cls-2{stroke:#000;stroke-width:8px;}</style></defs><g id="Layer_27" data-name="Layer 27"><path class="cls-1" d="M320,86.17" transform="translate(0 1.53)"/><ellipse class="cls-1" cx="319.5" cy="149.03" rx="35.85" ry="50"/><polyline class="cls-1" points="246.5 327.03 249.5 380.03 231.5 440.03"/><path class="cls-1" d="M365.5,197.5s27.5-13.5,38-24c10-10,51-62,51-62l58-94L529,0" transform="translate(0 1.53)"/><path class="cls-1" d="M272.8,197.5s-27.5-13.5-38-24c-10-10-51-62-51-62l-58-94L109.34,0" transform="translate(0 1.53)"/><polyline class="cls-1" points="392.5 327.03 389.5 380.03 407.5 440.03"/></g><g id="Layer_1" data-name="Layer 1"><line class="cls-2" x1="320" y1="1.53" x2="320" y2="481.53"/><rect class="cls-3" y="1.53" width="8" height="8"/><rect class="cls-3" y="473.53" width="8" height="8"/><rect class="cls-3" x="632" y="473.53" width="8" height="8"/><rect class="cls-3" x="632" y="1.53" width="8" height="8"/></g></svg>