<svg xmlns="http://www.w3.org/2000/svg" viewBox="0 0 640 480"><defs><style>.cls-1,.cls-2,.cls-4,.cls-5{fill:none;}.cls-1{stroke:#ed1e79;stroke-width:3.05px;}.cls-1,.cls-2{stroke-linecap:round;}.cls-1,.cls-2,.cls-4{stroke-miterlimit:10;}.cls-2{stroke:#fff;stroke-width:6px;}.cls-3{fill:#fff;}.cls-4{stroke:#000;stroke-width:8px;}</style></defs><g id="Layer_29" data-name="Layer 29"><path class="cls-1" d="M320,86.17"/><ellipse class="cls-1" cx="319.5" cy="147.5" rx="35.85" ry="50"/><polyline class="cls-1" points="246.5 325.5 249.5 378.5 231.5 438.5"/><path class="cls-1" d="M358.5,205.5s38.48,2.85,52,9c11,5,66,38,80,33s61.26-20.75,71-23c13-3,22-14,28-29"/><path class="cls-1" d="M280.8,205.5s-38.48,2.85-52,9c-11,5-66,38-80,33s-61.25-20.75-71-23c-13-3-22-14-28-29"/><polyline class="cls-1" points="392.5 325.5 389.5 378.5 407.5 438.5"/><path class="cls-2" d="M141.55,101.83s-13.44,41.36,4,85.36"/><polygon class="cls-3" points="131.64 180.05 144.95 185.53 150.41 172.21 153.74 180.18 148.27 193.49 134.97 188.02 131.64 180.05"/><path class="cls-2" d="M499.67,101.83s13.44,41.36-4,85.36"/><polygon class="cls-3" points="490.81 172.21 496.27 185.53 509.58 180.05 506.25 188.02 492.95 193.49 487.48 180.18 490.81 172.21"/></g><g id="Layer_1" data-name="Layer 1"><line class="cls-4" x1="320" x2="320" y2="480"/><rect class="cls-5" width="8" height="8"/><rect class="cls-5" y="472" width="8" height="8"/><rect class="cls-5" x="632" y="472" width="8" height="8"/><rect class="cls-5" x="632" width="8" height="8"/></g></svg>