<svg xmlns="http://www.w3.org/2000/svg" viewBox="0 0 687.05 480"><defs><style>.cls-1,.cls-2,.cls-3{fill:none;}.cls-1{stroke:#ed1e79;stroke-linecap:round;stroke-width:3.05px;}.cls-1,.cls-2{stroke-miterlimit:10;}.cls-2{stroke:#000;stroke-width:8px;}</style></defs><g id="Layer_23" data-name="Layer 23"><path class="cls-1" d="M303,290.87s6.23,4.89,17,4.89" transform="translate(23.39)"/><ellipse class="cls-1" cx="296.39" cy="238" rx="20" ry="9"/><path class="cls-1" d="M337,290.87s-6.23,4.89-17,4.89" transform="translate(23.39)"/><ellipse class="cls-1" cx="390.39" cy="238" rx="20" ry="9"/><path class="cls-1" d="M284,328s14.23,8.7,36,7.95" transform="translate(23.39)"/><path class="cls-1" d="M356,328s-14.23,8.7-36,7.95" transform="translate(23.39)"/><path class="cls-1" d="M284,328s14.23,3,36,2.74" transform="translate(23.39)"/><path class="cls-1" d="M356,328s-14.23,3-36,2.74" transform="translate(23.39)"/><path class="cls-1" d="M290,374s11,8.63,30,8.63" transform="translate(23.39)"/><path class="cls-1" d="M249,155s16-22,71-22" transform="translate(23.39)"/><path class="cls-1" d="M391,155s-16-22-71-22" transform="translate(23.39)"/><path class="cls-1" d="M223.5,210.5s-5,22-4,40,8.5,45.26,8.5,45.26" transform="translate(23.39)"/><path class="cls-1" d="M241.75,332s-13.51-14.57-22.38-24.53-20.87-42-39.87-44-36-8-45-6S-21.86,295.76-21.86,295.76" transform="translate(23.39)"/><path class="cls-1" d="M219.37,179s-22.87,6.5-32.87,6.5H88.78c-26.28,0-100.28,5-100.28,5" transform="translate(23.39)"/><path class="cls-1" d="M350.28,374s-11,8.63-30,8.63" transform="translate(23.39)"/><path class="cls-1" d="M416.78,210.5s5,22,4,40-8.5,45.26-8.5,45.26" transform="translate(23.39)"/><path class="cls-1" d="M398.53,332s13.51-14.57,22.38-24.53,20.87-42,39.87-44,36-8,45-6,156.36,38.26,156.36,38.26" transform="translate(23.39)"/><path class="cls-1" d="M420.91,179s22.87,6.5,32.87,6.5h97.71c26.29,0,100.29,5,100.29,5" transform="translate(23.39)"/></g><g id="Layer_1" data-name="Layer 1"><line class="cls-2" x1="343.39" x2="343.39" y2="480"/><rect class="cls-3" x="23.39" width="8" height="8"/><rect class="cls-3" x="23.39" y="472" width="8" height="8"/><rect class="cls-3" x="655.39" y="472" width="8" height="8"/><rect class="cls-3" x="655.39" width="8" height="8"/></g></svg>