<svg xmlns="http://www.w3.org/2000/svg" viewBox="0 0 643.05 481.53"><defs><style>.cls-1,.cls-2,.cls-3{fill:none;}.cls-1{stroke:#ed1e79;stroke-linecap:round;stroke-width:3.05px;}.cls-1,.cls-2{stroke-miterlimit:10;}.cls-2{stroke:#000;stroke-width:8px;}</style></defs><g id="Layer_21" data-name="Layer 21"><path class="cls-1" d="M249,161s16-22,71-22" transform="translate(1.03)"/><path class="cls-1" d="M290,410s11,8.63,30,8.63" transform="translate(1.03)"/><path class="cls-1" d="M303,321.87s6.23,4.89,17,4.89" transform="translate(1.03)"/><ellipse class="cls-1" cx="274.03" cy="251" rx="20" ry="9"/><path class="cls-1" d="M391,161s-16-22-71-22" transform="translate(1.03)"/><path class="cls-1" d="M350,410s-11,8.63-30,8.63" transform="translate(1.03)"/><path class="cls-1" d="M337,321.87s-6.23,4.89-17,4.89" transform="translate(1.03)"/><ellipse class="cls-1" cx="368.03" cy="251" rx="20" ry="9"/><path class="cls-1" d="M277,356s17,12.07,43,11" transform="translate(1.03)"/><path class="cls-1" d="M363,356s-17,12.07-43,11" transform="translate(1.03)"/><path class="cls-1" d="M277,356s17,6.52,43,6" transform="translate(1.03)"/><path class="cls-1" d="M363,356s-17,6.52-43,6" transform="translate(1.03)"/><path class="cls-1" d="M136.54,480s24.57-22.19,30.59-31.21,9.42-18.05,13.36-21.43,9.95-10.16,13.71-14.67,4.92-14.15,7.35-17.6,9.95-11,9.95-14.74,0-12-9.78-12.78-24.82,6.76-30.08,15.79-20.31,30.08-20.31,30.08-1.5-28.58-.75-37.6,4.51-23.32,6-30.84,9-30.08,9.78-34.59,3.76-23.32,5.26-30.08,15-39.86,0-44.38S149.83,266,148.33,269.8s-7.52,22.56-9.78,27.82-9.78,39.86-19.55,37.61-2.26-39.86-2.26-47.38-.75-35.35,0-41.37,8.27-38.35-11.28-39.86-15,34.6-15,39.11-4.52,36.85-5.27,42.12-2.25,46.62-5.26,46.62-3.78-19.55-3.39-26.69S73.87,267.54,74.62,263s5.92-36.85-8.69-39.49-16.12,21.81-16.5,24.63.38,15.2,0,19.92S47.09,293.86,47.32,301s2.49,43.24-9.55,46.25-11.28-3.76-15-8.27S3.82,313.42,1.62,307.78C1.37,307.15,1,306.2.5,305" transform="translate(1.03)"/><path class="cls-1" d="M.5,359.63c3.13,6.8,6.07,13.61,6.44,16.21.75,5.26,4.51,60.92,6,69.94s8.28,16.55,6.77,19.55S5.58,476.11,5.58,476.11" transform="translate(1.03)"/><path class="cls-1" d="M640.5,476.05v-8.77a14.41,14.41,0,0,1-3.48-3.53c-1-1.95,1.19-5.61,3.48-10.31" transform="translate(1.03)"/><path class="cls-1" d="M640.5,314.72c-3,4.08-5.5,7.45-6.81,9-4.17,5-3.33,12.5-16.67,9.17s-10.83-43.34-10.58-51.25-1.92-31.26-2.34-36.49.42-18.94,0-22.06-2.08-30.21-18.28-27.3-10.47,38.76-9.64,43.76-2.5,41.67-2.07,49.59-.43,29.58-3.76,29.58-5-45.84-5.83-51.67-5.84-41.67-5.84-46.67,5-45-16.67-43.34-13.33,37.5-12.5,44.17,0,37.51,0,45.84,8.34,50-2.5,52.51-19.17-35.84-21.67-41.68-9.17-26.66-10.83-30.83-9.17-42.51-25.84-37.51-1.67,41.68,0,49.18,5,28.33,5.84,33.33,9.16,30,10.83,38.34,5.83,24.17,6.67,34.17-.84,41.67-.84,41.67-16.66-23.33-22.5-33.33-22.5-18.34-33.34-17.51-10.83,10-10.83,14.17,8.33,12.5,11,16.33,4,14.51,8.14,19.51,10.83,12.5,15.2,16.25,8.13,13.75,14.8,23.75S507.57,480,507.57,480" transform="translate(1.03)"/></g><g id="Layer_1" data-name="Layer 1"><line class="cls-2" x1="321.03" x2="321.03" y2="480"/><rect class="cls-3" x="1.03" width="8" height="8"/><rect class="cls-3" x="1.03" y="472" width="8" height="8"/><rect class="cls-3" x="633.03" y="472" width="8" height="8"/><rect class="cls-3" x="633.03" width="8" height="8"/></g></svg>