<svg xmlns="http://www.w3.org/2000/svg" viewBox="0 0 643.45 480"><defs><style>.cls-1,.cls-2,.cls-3,.cls-4{fill:none;}.cls-1{stroke:#ed1e79;stroke-width:3.05px;}.cls-1,.cls-2{stroke-linecap:round;}.cls-1,.cls-2,.cls-3{stroke-miterlimit:10;}.cls-2{stroke:#fff;stroke-width:3.53px;}.cls-3{stroke:#000;stroke-width:8px;}</style></defs><g id="Layer_24" data-name="Layer 24"><path class="cls-1" d="M303,294.87s6.23,4.89,17,4.89" transform="translate(1.53)"/><ellipse class="cls-1" cx="274.53" cy="242" rx="20" ry="9"/><path class="cls-1" d="M337,294.87s-6.23,4.89-17,4.89" transform="translate(1.53)"/><ellipse class="cls-1" cx="368.53" cy="242" rx="20" ry="9"/><path class="cls-1" d="M284,332s14.23,8.7,36,7.95" transform="translate(1.53)"/><path class="cls-1" d="M356,332s-14.23,8.7-36,7.95" transform="translate(1.53)"/><path class="cls-1" d="M284,332s14.23,3,36,2.74" transform="translate(1.53)"/><path class="cls-1" d="M356,332s-14.23,3-36,2.74" transform="translate(1.53)"/><path class="cls-1" d="M290,378s11,8.63,30,8.63" transform="translate(1.53)"/><path class="cls-1" d="M0,177.89a138,138,0,0,1,16.5-6.39c33-10,111-27,126-31s50-16,56-20,7-8,15-10,52-14,59.5-13.49,35.5,6.45,38.5,11.47,7,16,0,14.53-19-4.14-27.5-3.82" transform="translate(1.53)"/><path class="cls-1" d="M61.5,427.5S30.55,403.82.07,377.92" transform="translate(1.53)"/><path class="cls-1" d="M240.5,118.5s14,4,20,9,41,33.71,41.5,39.85-7.5,12.32-12,12.24-20.5-18.09-28.5-21.09-12.93-11.91-18-12.46-17-9.54-17-9.54" transform="translate(1.53)"/><path class="cls-1" d="M214.5,136.5s21,17,26,21,16,19,20,24,11,16.62,12.5,19.31-8.5,11.69-13.5,8.69-12.35-18-15.67-19S226.57,176.1,224,173.3s-18.54-16.8-18.54-16.8" transform="translate(1.53)"/><path class="cls-1" d="M202.5,166.5s19,24,22,28,19.65,27.73,14.83,30.36-6.83,5.64-10.83,2.64-12.4-13.79-15.2-17.4-12.8-17.6-16.8-21.6-10-12-18-13" transform="translate(1.53)"/><path class="cls-1" d="M146.5,193.5s-63.34,38-76.67,48.5" transform="translate(1.53)"/><path class="cls-1" d="M350.4,378s-11,8.63-30,8.63" transform="translate(1.53)"/><path class="cls-1" d="M640.4,177.88a139.51,139.51,0,0,0-16.5-6.38c-33-10-111-27-126-31s-50-16-56-20-7-8-15-10-52-14-59.5-13.49-35.5,6.45-38.5,11.47-7,16,0,14.53,19-4.14,27.5-3.82" transform="translate(1.53)"/><path class="cls-1" d="M578.9,427.5s30.82-23.58,61.24-49.41" transform="translate(1.53)"/><path class="cls-1" d="M399.9,118.5s-14,4-20,9-41,33.71-41.5,39.85,7.5,12.32,12,12.24,20.5-18.09,28.5-21.09,12.93-11.91,18-12.46,17-9.54,17-9.54" transform="translate(1.53)"/><path class="cls-1" d="M425.9,136.5s-21,17-26,21-16,19-20,24-11,16.62-12.5,19.31,8.5,11.69,13.5,8.69,12.35-18,15.68-19,17.25-14.4,19.79-17.2,18.53-16.8,18.53-16.8" transform="translate(1.53)"/><path class="cls-1" d="M437.9,166.5s-19,24-22,28-19.65,27.73-14.82,30.36,6.82,5.64,10.82,2.64,12.4-13.79,15.2-17.4,12.8-17.6,16.8-21.6,10-12,18-13" transform="translate(1.53)"/><path class="cls-1" d="M493.9,193.5s63.35,38,76.68,48.5" transform="translate(1.53)"/><path class="cls-2" d="M426.46,225.08S434.6,230.64,443,233" transform="translate(1.53)"/><path class="cls-2" d="M438.46,218.08S446.6,223.64,455,226" transform="translate(1.53)"/><path class="cls-2" d="M207.46,225.08s-8.15,5.56-16.54,7.92" transform="translate(1.53)"/><path class="cls-2" d="M195.46,218.08s-8.15,5.56-16.54,7.92" transform="translate(1.53)"/></g><g id="Layer_1" data-name="Layer 1"><line class="cls-3" x1="321.53" x2="321.53" y2="480"/><rect class="cls-4" x="1.53" width="8" height="8"/><rect class="cls-4" x="1.53" y="472" width="8" height="8"/><rect class="cls-4" x="633.53" y="472" width="8" height="8"/><rect class="cls-4" x="633.53" width="8" height="8"/></g></svg>