<svg xmlns="http://www.w3.org/2000/svg" viewBox="0 0 640 480"><defs><style>.cls-1,.cls-2,.cls-3{fill:none;}.cls-1{stroke:#ed1e79;stroke-linecap:round;stroke-width:3.05px;}.cls-1,.cls-2{stroke-miterlimit:10;}.cls-2{stroke:#000;stroke-width:8px;}</style></defs><g id="Layer_22" data-name="Layer 22"><path class="cls-1" d="M444.5,102.8"/><ellipse class="cls-1" cx="440.15" cy="169.1" rx="50" ry="35.85" transform="translate(18.01 379.16) rotate(-47.47)"/><polyline class="cls-1" points="283.6 294.61 265.72 344.6 225.77 392.85"/><path class="cls-1" d="M424.63,236.3s37.09,10.64,49.08,19.41c9.75,7.13,68.33,39.75,83.05,37.71s52.08-63.73,54.12-73.52-2.54-27.08,4.07-44.09"/><polyline class="cls-1" points="418.07 351.47 394.67 399.12 387.88 461.39"/><path class="cls-1" d="M371,195.84s-34.27-17.65-48.82-20.64c-10-2-63.94-25.95-89.16-27.93s-68.71,46.95-76.29,54.6-26.16,46.48-26.16,46.48"/></g><g id="Layer_1" data-name="Layer 1"><line class="cls-2" x1="320" x2="320" y2="480"/><rect class="cls-3" width="8" height="8"/><rect class="cls-3" y="472" width="8" height="8"/><rect class="cls-3" x="632" y="472" width="8" height="8"/><rect class="cls-3" x="632" width="8" height="8"/></g></svg>